<?xml version="1.0" encoding="UTF-8" standalone="no"?>
<svg
   xmlns:dc="http://purl.org/dc/elements/1.1/"
   xmlns:cc="http://creativecommons.org/ns#"
   xmlns:rdf="http://www.w3.org/1999/02/22-rdf-syntax-ns#"
   xmlns:svg="http://www.w3.org/2000/svg"
   xmlns="http://www.w3.org/2000/svg"
   xmlns:sodipodi="http://sodipodi.sourceforge.net/DTD/sodipodi-0.dtd"
   xmlns:inkscape="http://www.inkscape.org/namespaces/inkscape"
   height="86"
   width="86"
   version="1.1"
   x="0px"
   y="0px"
   viewBox="0 0 77.4 77.4"
   style="fill:#000000"
   xml:space="preserve"
   id="svg26"
   sodipodi:docname="info.svg"
   inkscape:version="0.92.2 (5c3e80d, 2017-08-06)"><metadata
     id="metadata32"><rdf:RDF><cc:Work
         rdf:about=""><dc:format>image/svg+xml</dc:format><dc:type
           rdf:resource="http://purl.org/dc/dcmitype/StillImage" /><dc:title /></cc:Work></rdf:RDF></metadata><defs
     id="defs30"><clipPath
       clipPathUnits="userSpaceOnUse"
       id="clipPath852"><rect
         style="opacity:0;fill:#2653af;fill-opacity:1;stroke:none;stroke-width:1.79999995;stroke-miterlimit:4;stroke-dasharray:none;stroke-opacity:1"
         id="rect854"
         width="25.646185"
         height="25.932203"
         x="257.12924"
         y="91.525429" /></clipPath></defs><sodipodi:namedview
     pagecolor="#ffffff"
     bordercolor="#666666"
     borderopacity="1"
     objecttolerance="10"
     gridtolerance="10"
     guidetolerance="10"
     inkscape:pageopacity="0"
     inkscape:pageshadow="2"
     inkscape:window-width="2560"
     inkscape:window-height="1406"
     id="namedview28"
     showgrid="false"
     fit-margin-top="0"
     fit-margin-left="0"
     fit-margin-right="0"
     fit-margin-bottom="0"
     inkscape:zoom="1.4142136"
     inkscape:cx="-137.72591"
     inkscape:cy="-115.14388"
     inkscape:window-x="0"
     inkscape:window-y="1440"
     inkscape:window-maximized="1"
     inkscape:current-layer="svg26" /><path
     id="path814"
     d="M 52.531379,63.912581 51.60137,67.716786 C 48.811371,68.81901 46.580129,69.657157 44.919149,70.235065 43.25815,70.812964 41.325443,71.1 39.124818,71.1 c -3.379383,0 -6.008645,-0.826668 -7.883967,-2.472352 -1.875303,-1.649507 -2.812959,-3.742964 -2.812959,-6.280371 0,-0.983584 0.06887,-1.993955 0.210495,-3.023465 0.141606,-1.029501 0.367404,-2.192959 0.677404,-3.490373 L 32.806163,43.48701 c 0.31001,-1.182597 0.574081,-2.303958 0.784576,-3.364085 0.214323,-1.052467 0.317656,-2.020743 0.317656,-2.893327 0,-1.576801 -0.325313,-2.679024 -0.975929,-3.29902 -0.650626,-0.619997 -1.890625,-0.933828 -3.731483,-0.933828 -0.903212,0 -1.829394,0.145428 -2.774697,0.424813 -0.949141,0.279384 -1.760494,0.551112 -2.441736,0.803708 l 0.933828,-3.808035 c 2.284817,-0.929998 4.47013,-1.726049 6.559766,-2.38815 2.089625,-0.662093 4.064443,-0.995055 5.932099,-0.995055 3.356423,0 5.947422,0.811351 7.765321,2.434068 1.817898,1.622718 2.728766,3.727663 2.728766,6.322485 0,0.535794 -0.06127,1.481111 -0.187525,2.832093 -0.126303,1.354821 -0.359757,2.594822 -0.700373,3.723833 l -3.47507,12.300512 c -0.283212,0.987404 -0.539626,2.116423 -0.761596,3.387034 -0.229636,1.262968 -0.340626,2.227413 -0.340626,2.874207 0,1.634197 0.363586,2.747899 1.094566,3.341108 0.734818,0.593217 2.001615,0.887902 3.800382,0.887902 0.845798,0 1.806414,-0.149256 2.874191,-0.443942 1.067788,-0.294694 1.844697,-0.554942 2.3231,-0.78075 z M 53.41545,12.276484 c 0,2.143213 -0.807525,3.972593 -2.430242,5.47667 -1.618898,1.511728 -3.570746,2.265681 -5.851745,2.265681 -2.288646,0 -4.244322,-0.753953 -5.882352,-2.265681 -1.634192,-1.504077 -2.453211,-3.333457 -2.453211,-5.47667 0,-2.139391 0.819019,-3.9726001 2.453211,-5.4958158 1.634201,-1.5232074 3.593706,-2.280982 5.882352,-2.280982 2.280999,0 4.232847,0.7616038 5.851745,2.280982 1.622717,1.5232157 2.430242,3.3564248 2.430242,5.4958158 z m 0,0"
     style="fill:#6999d3;fill-opacity:1;fill-rule:nonzero;stroke:none;stroke-width:1.20000005"
     inkscape:connector-curvature="0" /></svg>