<svg xmlns="http://www.w3.org/2000/svg" width="115" height="115"><g fill="none" fill-rule="evenodd"><path fill="#AB2B4A" d="M107.998 28.748v57.5L97.297 72.499 91.335 57.5h-.004l5.662-15.209z"/><path fill="#E87A68" d="M8.004 28.748v57.5l9.46-13.333L24.667 57.5h.004l-7.323-14.625z"/><path fill="#D74D4E" d="m91.331 57.5-31.515 1.992L24.667 57.5l14.668-28.752L58.001 0l20.296 31.564z"/><path fill="#BD3246" d="M107.998 28.748 91.331 57.5 58.001 0z"/><path fill="#F19175" d="M58.001 0 24.667 57.5 8 28.748z"/><path fill="#CF3942" d="M91.331 57.5 79.94 82.328 58.001 115 35.424 81.23 24.667 57.5z"/><path fill="#E0625B" d="M58.001 115 8 86.248 24.667 57.5z"/><path fill="#9A244F" d="m57.998 115 50-28.752L91.331 57.5z"/></g></svg>
