<svg xmlns="http://www.w3.org/2000/svg" width="70.691" height="70.69" viewBox="0 0 70.691 70.69">
  <g id="Groupe_640" data-name="Groupe 640" transform="translate(-257 -7006)">
    <g id="Groupe_639" data-name="Groupe 639" transform="translate(257 7006)">
      <circle id="Ellipse_351" data-name="Ellipse 351" cx="2.343" cy="2.343" r="2.343" transform="translate(16.797 49.209)" fill="#41a890"/>
      <circle id="Ellipse_352" data-name="Ellipse 352" cx="2.421" cy="2.421" r="2.421" transform="translate(20.089 45.762)" fill="#41a890"/>
      <circle id="Ellipse_353" data-name="Ellipse 353" cx="2.588" cy="2.588" r="2.588" transform="translate(36.479 29.037)" fill="#41a890"/>
      <circle id="Ellipse_354" data-name="Ellipse 354" cx="2.491" cy="2.491" r="2.491" transform="translate(23.492 42.218)" fill="#41a890"/>
      <circle id="Ellipse_355" data-name="Ellipse 355" cx="2.234" cy="2.234" r="2.234" transform="translate(13.546 52.678)" fill="#41a890"/>
      <circle id="Ellipse_356" data-name="Ellipse 356" cx="2.149" cy="2.149" r="2.149" transform="translate(10.249 56.145)" fill="#41a890"/>
      <circle id="Ellipse_357" data-name="Ellipse 357" cx="1.5" cy="1.5" r="1.5" transform="translate(8 59.69)" fill="#41a890"/>
      <circle id="Ellipse_358" data-name="Ellipse 358" cx="1.971" cy="1.971" r="1.971" transform="translate(3.73 63.021)" fill="#41a890"/>
      <ellipse id="Ellipse_359" data-name="Ellipse 359" cx="5.776" cy="3.183" rx="5.776" ry="3.183" transform="translate(25.857 40.334) rotate(-45)" fill="#41a890"/>
      <g id="Groupe_637" data-name="Groupe 637" transform="translate(0 0)">
        <path id="Tracé_333" data-name="Tracé 333" d="M199.691,13.309S193.7,2.086,190.922.085a.388.388,0,0,0-.534.045c-1.087,1.273-5.18,7.521,2.593,22.753,0,0,4.239,8.476,13.87,10.024a2.049,2.049,0,0,1,1.366.7.667.667,0,0,0,.24.229.685.685,0,0,0,.621-.161,1.323,1.323,0,0,0,.365-1.08,2.54,2.54,0,0,0-.305-1.154c-.476-.86-4.27-8.137-9.435-18.11Z" transform="translate(-178.118 0)" fill="#41a890"/>
        <path id="Tracé_334" data-name="Tracé 334" d="M199.337,44.435a.865.865,0,0,1-.164,1.247s-.6.571-2.005.034a6.553,6.553,0,0,0-1.777-.431,3.557,3.557,0,0,0-.542-.006c-.589.053-2.686.151-7.725-1.542-6.1-2.046-10.071-7.666-10.071-7.666a30.209,30.209,0,0,1-3.915-7.574.872.872,0,0,1-.039-.131c-.053-.183-.144-.51-.235-.941-.007-.045-.02-.1-.027-.157a10.652,10.652,0,0,1-.229-1.836s-.007-.32.006-.713c0-.079.013-.157.02-.242a1.769,1.769,0,0,1,.281-1.078c.276-.246,1.843.628,2.634,1.1.275.157.457.275.457.275.066.039.131.078.2.124.131.078.262.157.392.248,1.091.739,1.961,1.425,1.961,1.425l18.286,15.293A18.392,18.392,0,0,1,199.337,44.435Z" transform="translate(-172.605 -8.183)" fill="#41a890"/>
      </g>
      <g id="Groupe_638" data-name="Groupe 638" transform="translate(32.927 39.365)">
        <path id="Tracé_335" data-name="Tracé 335" d="M249.849,70.348s11.223,5.989,13.224,8.769a.387.387,0,0,1-.045.534c-1.273,1.087-7.521,5.18-22.753-2.593,0,0-8.475-4.24-10.024-13.87a2.048,2.048,0,0,0-.7-1.366.668.668,0,0,1-.228-.24.681.681,0,0,1,.161-.621,1.323,1.323,0,0,1,1.08-.365,2.535,2.535,0,0,1,1.154.305c.859.475,8.136,4.269,18.11,9.435Z" transform="translate(-225.394 -60.596)" fill="#41a890"/>
        <path id="Tracé_336" data-name="Tracé 336" d="M224.8,67.556a.865.865,0,0,0-1.247.165s-.571.594-.034,2a6.55,6.55,0,0,1,.431,1.778,3.549,3.549,0,0,1,.007.542c-.052.588-.15,2.686,1.542,7.725,2.046,6.1,7.666,10.071,7.666,10.071a30.182,30.182,0,0,0,7.575,3.915.792.792,0,0,0,.13.04c.183.052.509.144.941.235.046.006.1.02.157.026a10.664,10.664,0,0,0,1.836.229s.32.007.712-.006c.079,0,.157-.013.242-.019a1.761,1.761,0,0,0,1.078-.281c.246-.276-.627-1.842-1.1-2.634-.156-.274-.274-.457-.274-.457-.04-.066-.079-.131-.124-.2-.079-.131-.157-.261-.249-.392-.738-1.091-1.425-1.961-1.425-1.961L227.371,70.046A18.463,18.463,0,0,0,224.8,67.556Z" transform="translate(-223.291 -62.962)" fill="#41a890"/>
      </g>
    </g>
  </g>
</svg>
