<svg height='100px' width='100px'  fill="#3569aa" xmlns="http://www.w3.org/2000/svg" xmlns:xlink="http://www.w3.org/1999/xlink" version="1.0" x="0px" y="0px" viewBox="0 0 24 24" enable-background="new 0 0 24 24" xml:space="preserve"><g><path d="M17.9,3v9.7c0,1.7-0.6,3-1.7,3.9C15.2,17.5,13.7,18,12,18c-1.8,0-3.2-0.5-4.3-1.4c-1.1-0.9-1.6-2.2-1.6-3.9V3h3v9.7   c0,1,0.3,1.7,0.8,2.3c0.5,0.5,1.2,0.8,2.1,0.8c0.9,0,1.6-0.3,2.2-0.8c0.5-0.5,0.8-1.3,0.8-2.3V3H17.9z"></path></g><line fill="none" stroke="#3569aa" stroke-width="2" stroke-miterlimit="10" x1="6" y1="21" x2="18" y2="21"></line></svg>
