<?xml version="1.0" encoding="UTF-8" standalone="no"?><svg xmlns="http://www.w3.org/2000/svg" width="100" height="100" viewBox="0 0 1024 1024" style="enable-background:new 0 0 1024 1024"><g style="fill:#1ea2f1;fill-opacity:1"><g style="fill:#1ea2f1;fill-opacity:1"><polygon points="738.7,496.4 738.7,376.4 75.4,376.4 75.4,227.6 738.7,227.6 738.7,107.6 948.6,302" style="fill:#1ea2f1;fill-opacity:1"/><g style="fill:#1ea2f1;fill-opacity:1"><path d="M758.7 496.4V391.5v-15.1c0-10.8-9.2-20-20-20H156.8c-26.7 0-53.6-.9-80.3 0h-1.1l20 20V245.8v-18.3l-20 20h581.9c26.7 0 53.6.6 80.3 0h1.1c10.8 0 20-9.2 20-20V122.6v-15.1c-11.4 4.7-22.8 9.4-34.1 14.1 23.7 21.9 47.4 43.9 71.1 65.8 37.7 34.9 75.4 69.8 113.1 104.8 8.6 7.9 17.1 15.9 25.7 23.8v-28.3c-23.7 21.9-47.4 43.9-71.1 65.8-37.7 34.9-75.4 69.8-113.1 104.8-8.6 7.9-17.1 15.9-25.7 23.8-7.7 7.1-7.8 21.2 0 28.3 8.2 7.6 20.1 7.6 28.3 0 23.7-21.9 47.4-43.9 71.1-65.8 37.7-34.9 75.4-69.8 113.1-104.8 8.6-7.9 17.1-15.9 25.7-23.8 7.7-7.1 7.7-21.1 0-28.3-23.7-21.9-47.4-43.9-71.1-65.8-37.7-34.9-75.4-69.8-113.1-104.8-8.6-7.9-17.1-15.9-25.7-23.8-12.5-11.6-34.1-3.7-34.1 14.1v120l20-20H156.9c-26.7 0-53.6-.6-80.3 0h-1.1c-10.8 0-20 9.2-20 20v148.9c0 10.8 9.2 20 20 20h581.9c26.7 0 53.6.9 80.3 0h1.1l-20-20v120c0 10.5 9.2 20.5 20 20 10.8-.4 19.9-8.7 19.9-19.9z" style="fill:#1ea2f1;fill-opacity:1"/></g></g><g style="fill:#1ea2f1;fill-opacity:1"><polygon points="285.3,916.4 285.3,796.4 948.6,796.4 948.6,647.6 285.3,647.6 285.3,527.6 75.4,722" style="fill:#1ea2f1;fill-opacity:1"/><g style="fill:#1ea2f1;fill-opacity:1"><path d="M305.3 916.4V811.5v-15.1l-20 20h581.9c26.7 0 53.6.6 80.3 0h1.1c10.8 0 20-9.2 20-20V665.8v-18.3c0-10.8-9.2-20-20-20H366.7c-26.7 0-53.6-.9-80.3 0h-1.1l20 20V542.6v-15.1c0-17.8-21.6-25.7-34.1-14.1-23.7 21.9-47.4 43.9-71.1 65.8C162.4 614.1 124.7 649 87 684c-8.6 7.9-17.1 15.9-25.7 23.8-7.7 7.1-7.7 21.1 0 28.3C85 758 108.7 780 132.4 801.9c37.7 34.9 75.4 69.8 113.1 104.8 8.6 7.9 17.1 15.9 25.7 23.8 7.7 7.1 20.8 8.2 28.3 0 7.1-7.7 8.2-20.7 0-28.3-23.7-21.9-47.4-43.9-71.1-65.8-37.7-34.9-75.4-69.8-113.1-104.8-8.6-7.9-17.1-15.9-25.7-23.8v28.3c23.7-21.9 47.4-43.9 71.1-65.8 37.7-34.9 75.4-69.8 113.1-104.8 8.6-7.9 17.1-15.9 25.7-23.8-11.4-4.7-22.8-9.4-34.1-14.1v120c0 10.8 9.2 20 20 20h581.9c26.7 0 53.6.9 80.3 0h1.1l-20-20v148.9l20-20H366.8c-26.7 0-53.6-.6-80.3 0h-1.1c-10.8 0-20 9.2-20 20v120c0 10.5 9.2 20.5 20 20 10.7-.6 19.9-8.9 19.9-20.1z" style="fill:#1ea2f1;fill-opacity:1"/></g></g></g></svg>