<?xml version="1.0" encoding="UTF-8" standalone="no"?><svg xmlns="http://www.w3.org/2000/svg" width="66" height="86" viewBox="0 0 59.4 77.4" style="fill:#000"><path style="opacity:1;fill:#6999d3;fill-opacity:1;stroke:none;stroke-width:1.79999983;stroke-miterlimit:4;stroke-dasharray:none;stroke-opacity:1" d="M29.7 1.546a6.3 6.3 0 00-6.165 5.008h-5.623A2.607 2.607 0 0015.3 9.166v.088H9.267c-3.637 0-6.567 2.984-6.567 6.688v53.225c0 3.705 2.93 6.687 6.567 6.687h40.866c3.637 0 6.567-2.982 6.567-6.687V15.942c0-3.704-2.93-6.688-6.567-6.688H44.1v-.088a2.607 2.607 0 00-2.612-2.612h-5.629A6.3 6.3 0 0029.7 1.546zm0 4.423a1.877 1.877 0 011.877 1.877A1.877 1.877 0 0129.7 9.723a1.877 1.877 0 01-1.877-1.877A1.877 1.877 0 0129.7 5.969zm-20.085 8.71H15.3v.063a2.607 2.607 0 002.612 2.612h23.576a2.607 2.607 0 002.612-2.612v-.063h5.685c.955 0 1.722.783 1.722 1.756v52.24c0 .973-.767 1.756-1.722 1.756H9.615c-.955 0-1.722-.783-1.722-1.756v-52.24c0-.973.767-1.756 1.722-1.756zm4.592 13.032c-1.39 0-2.507 1.031-2.507 2.312 0 1.28 1.118 2.311 2.507 2.311h30.986c1.39 0 2.507-1.031 2.507-2.311s-1.118-2.312-2.507-2.312zm0 10.46c-1.39 0-2.507 1.03-2.507 2.31s1.118 2.312 2.507 2.312h30.986c1.39 0 2.507-1.031 2.507-2.311s-1.118-2.31-2.507-2.31zm0 10.46c-1.39 0-2.507 1.03-2.507 2.31s1.118 2.311 2.507 2.311h30.986c1.39 0 2.507-1.031 2.507-2.311s-1.118-2.31-2.507-2.31zm0 10.459c-1.39 0-2.507 1.03-2.507 2.311 0 1.28 1.118 2.31 2.507 2.31h30.986c1.39 0 2.507-1.03 2.507-2.31s-1.118-2.311-2.507-2.311z"/></svg>