<?xml version="1.0" encoding="UTF-8" standalone="no"?><svg xmlns="http://www.w3.org/2000/svg" id="svg26" width="80" height="80" x="0" y="0" version="1.1" viewBox="0 0 72 72" style="fill:#000" xml:space="preserve"><defs id="defs30"><clipPath id="clipPath852" clipPathUnits="userSpaceOnUse"><rect style="opacity:0;fill:#2653af;fill-opacity:1;stroke:none;stroke-width:1.8;stroke-miterlimit:4;stroke-dasharray:none;stroke-opacity:1" id="rect854" width="25.646" height="25.932" x="257.129" y="91.525"/></clipPath></defs><g id="g839" transform="translate(6.3)"><path id="path894" style="opacity:1;fill:#2b96fd;fill-opacity:1;stroke:none;stroke-width:1.8;stroke-miterlimit:4;stroke-dasharray:none;stroke-opacity:1" d="M16.007 31.876c-1.39 0-2.507 1.03-2.507 2.31s1.118 2.311 2.507 2.311h27.386c1.39 0 2.507-1.031 2.507-2.311s-1.118-2.31-2.507-2.31zm0 10.459c-1.39 0-2.507 1.03-2.507 2.31s1.118 2.311 2.507 2.311h20.186c1.39 0 2.507-1.031 2.507-2.311s-1.118-2.31-2.507-2.31zm0 10.459c-1.39 0-2.507 1.03-2.507 2.311 0 1.28 1.118 2.31 2.507 2.31h23.786c1.39 0 2.507-1.03 2.507-2.31s-1.118-2.311-2.507-2.311z"/><rect style="fill:#2b96fd;fill-opacity:1;stroke:none;stroke-width:4.5;stroke-linecap:round;stroke-linejoin:round;stroke-miterlimit:4;stroke-dasharray:none;stroke-opacity:1" id="rect924" width="14.4" height="10.8" x="13.5" y="13.875" rx="1.8" ry="1.8"/><path id="rect915" style="fill:none;stroke:#2b96fd;stroke-width:4.5;stroke-linecap:round;stroke-linejoin:round;stroke-miterlimit:4;stroke-dasharray:none;stroke-opacity:1" d="M7.725 4.95H37.35l17.1 17.1v42.225a2.769 2.769 0 01-2.775 2.775H7.725a2.769 2.769 0 01-2.775-2.775V7.725A2.769 2.769 0 017.725 4.95z"/><path style="fill:none;stroke:#2b96fd;stroke-width:4.49999;stroke-linecap:round;stroke-linejoin:round;stroke-miterlimit:4;stroke-dasharray:none;stroke-opacity:1" id="path920" d="M37.35 4.95v17.1h17.1"/></g><style id="style894" type="text/css"></style></svg>