<?xml version="1.0" encoding="UTF-8" standalone="no"?><svg xmlns="http://www.w3.org/2000/svg" width="30" height="30" enable-background="new -2.357 -2.951 1024 1024" viewBox="-2.357 -2.951 30 30"><path d="M6.756 9.129s2.923 5.754 8.768 8.768c0 0 .647.19 1.377-.541l1.142-1.096s.776-1.187 2.648-.228l5.297 3.105s1.872.776 0 2.602l-3.47 3.516s-.777 1.461-4.658.594c0 0-13.205-3.477-18.958-18.638 0 0-1.28-2.74.548-4.932l3.835-3.867s1.563-1.283 2.339.543l2.83 5.388s1.05 1.233-.273 2.603L6.993 8.042s-.629.395-.237 1.087z" style="fill:#1ea2f1;fill-opacity:1;stroke:none;stroke-width:1.21763027;stroke-miterlimit:10"/></svg>