<?xml version="1.0" encoding="UTF-8"?><svg xmlns="http://www.w3.org/2000/svg" width="100" height="100" fill-rule="evenodd" clip-rule="evenodd" viewBox="0 0 333 333"><path style="fill:#fff" d="M44.123 203.13c-7.534 0-13.598 5.94-13.598 13.32v73.26c0 7.38 6.064 13.32 13.598 13.32h244.755c7.533 0 13.597-5.94 13.597-13.32v-73.26c0-7.38-6.064-13.32-13.598-13.32H275.28v69.748c0 3.69-3.032 6.66-6.799 6.66H64.52c-3.767 0-6.799-2.97-6.799-6.66V203.13z"/><path style="fill:#fff" d="M16.928 29.97c-7.534 0-13.598 5.94-13.598 13.32v173.16c0 7.38 6.064 13.32 13.598 13.32h299.144c7.534 0 13.598-5.94 13.598-13.32V43.29c0-7.38-6.064-13.32-13.598-13.32zm20.396 26.64h258.352c3.767 0 6.799 2.97 6.799 6.66v133.2c0 3.69-3.032 6.66-6.799 6.66H37.324c-3.767 0-6.799-2.97-6.799-6.66V63.27c0-3.69 3.032-6.66 6.799-6.66z"/><rect width="27.195" height="53.28" x="84.915" y="249.75" rx="13.32" ry="13.32" style="fill:#fff"/><rect style="fill:#fff" width="27.195" height="53.28" x="130.24" y="249.75" rx="13.32" ry="13.32"/><rect width="27.195" height="53.28" x="175.565" y="249.75" rx="13.32" ry="13.32" style="fill:#fff"/><rect width="27.195" height="53.28" x="220.89" y="249.75" rx="13.32" ry="13.32" style="fill:#fff"/><rect style="fill:#fff" width="54.39" height="93.24" x="57.72" y="83.25" rx="6.66" ry="6.66"/><rect width="54.39" height="93.24" x="139.305" y="83.25" rx="6.66" ry="6.66" style="fill:#fff"/><rect style="fill:#fff" width="54.39" height="93.24" x="220.89" y="83.25" rx="6.66" ry="6.66"/></svg>