<?xml version="1.0" encoding="UTF-8" standalone="no"?><svg xmlns="http://www.w3.org/2000/svg" width="100" height="100" style="shape-rendering:geometricPrecision;text-rendering:geometricPrecision;image-rendering:optimizeQuality" fill-rule="evenodd" clip-rule="evenodd" viewBox="0 0 333 333"><path d="M320.286 221.384A163.17 70.37 0 01166.5 268.49a163.17 70.37 0 01-153.786-47.093 163.17 71.357 0 00-9.384 23.595A163.17 71.357 0 00166.5 316.35a163.17 71.357 0 00163.17-71.357 163.17 71.357 0 00-9.384-23.61z" style="fill:#1ea2f1;fill-opacity:1"/><path d="M12.445 143.546A163.17 70.37 0 003.33 166.5a163.17 70.37 0 00163.17 70.368A163.17 70.37 0 00329.67 166.5a163.17 70.37 0 00-9.115-22.933A163.17 70.37 0 01166.5 190.98a163.17 70.37 0 01-154.055-47.434z" style="fill:#1ea2f1;fill-opacity:1"/><path d="M329.67 88.007a163.17 71.357 0 01-163.17 71.357A163.17 71.357 0 013.33 88.007 163.17 71.357 0 01166.5 16.65a163.17 71.357 0 01163.17 71.357z" style="fill:#1ea2f1;fill-opacity:1"/></svg>