<?xml version="1.0" encoding="UTF-8" standalone="no"?>
<svg
   xmlns:dc="http://purl.org/dc/elements/1.1/"
   xmlns:cc="http://creativecommons.org/ns#"
   xmlns:rdf="http://www.w3.org/1999/02/22-rdf-syntax-ns#"
   xmlns:svg="http://www.w3.org/2000/svg"
   xmlns="http://www.w3.org/2000/svg"
   xmlns:sodipodi="http://sodipodi.sourceforge.net/DTD/sodipodi-0.dtd"
   xmlns:inkscape="http://www.inkscape.org/namespaces/inkscape"
   height="100px"
   width="100px"
   fill="#6999d3"
   version="1.0"
   x="0px"
   y="0px"
   viewBox="0 0 24 24"
   enable-background="new 0 0 24 24"
   xml:space="preserve"
   id="svg6"
   sodipodi:docname="bold.svg"
   inkscape:version="0.92.2 (5c3e80d, 2017-08-06)"><metadata
     id="metadata12"><rdf:RDF><cc:Work
         rdf:about=""><dc:format>image/svg+xml</dc:format><dc:type
           rdf:resource="http://purl.org/dc/dcmitype/StillImage" /></cc:Work></rdf:RDF></metadata><defs
     id="defs10" /><sodipodi:namedview
     pagecolor="#ffffff"
     bordercolor="#666666"
     borderopacity="1"
     objecttolerance="10"
     gridtolerance="10"
     guidetolerance="10"
     inkscape:pageopacity="0"
     inkscape:pageshadow="2"
     inkscape:window-width="2688"
     inkscape:window-height="1478"
     id="namedview8"
     showgrid="false"
     inkscape:zoom="2.36"
     inkscape:cx="-74.576271"
     inkscape:cy="48.305085"
     inkscape:window-x="0"
     inkscape:window-y="0"
     inkscape:window-maximized="1"
     inkscape:current-layer="svg6" /><g
     id="g4"
     style="stroke:none;stroke-opacity:1;fill:#6999d3;fill-opacity:1"><path
       d="M6,21V3h5.9c2.1,0,3.8,0.4,5,1.2s1.8,2.1,1.8,3.7c0,0.8-0.2,1.6-0.6,2.2c-0.4,0.7-1.1,1.1-1.9,1.5c1.1,0.2,2,0.7,2.5,1.5   c0.6,0.8,0.9,1.7,0.9,2.7c0,1.7-0.6,3-1.7,3.9C16.7,20.6,15,21,13,21H6z M9.6,10.5H12c1,0,1.7-0.2,2.2-0.6C14.8,9.6,15,9,15,8.2   c0-0.8-0.3-1.4-0.8-1.8s-1.3-0.6-2.3-0.6H9.6V10.5z M9.6,13v5.2H13c1,0,1.7-0.2,2.2-0.6c0.5-0.4,0.8-1,0.8-1.8c0-0.9-0.2-1.5-0.7-2   c-0.5-0.5-1.2-0.7-2.2-0.7H9.6z"
       id="path2"
       style="stroke:none;stroke-opacity:1;fill:#6999d3;fill-opacity:1" /></g></svg>
