<?xml version="1.0" encoding="UTF-8" standalone="no"?>
<svg
   xmlns:dc="http://purl.org/dc/elements/1.1/"
   xmlns:cc="http://creativecommons.org/ns#"
   xmlns:rdf="http://www.w3.org/1999/02/22-rdf-syntax-ns#"
   xmlns:svg="http://www.w3.org/2000/svg"
   xmlns="http://www.w3.org/2000/svg"
   xmlns:sodipodi="http://sodipodi.sourceforge.net/DTD/sodipodi-0.dtd"
   xmlns:inkscape="http://www.inkscape.org/namespaces/inkscape"
   height="86"
   width="66"
   version="1.1"
   x="0px"
   y="0px"
   viewBox="0 0 59.4 77.4"
   style="fill:#000000"
   xml:space="preserve"
   id="svg26"
   sodipodi:docname="clipboard.svg"
   inkscape:version="0.92.2 (5c3e80d, 2017-08-06)"><metadata
     id="metadata32"><rdf:RDF><cc:Work
         rdf:about=""><dc:format>image/svg+xml</dc:format><dc:type
           rdf:resource="http://purl.org/dc/dcmitype/StillImage" /><dc:title /></cc:Work></rdf:RDF></metadata><defs
     id="defs30"><clipPath
       clipPathUnits="userSpaceOnUse"
       id="clipPath852"><rect
         style="opacity:0;fill:#2653af;fill-opacity:1;stroke:none;stroke-width:1.79999995;stroke-miterlimit:4;stroke-dasharray:none;stroke-opacity:1"
         id="rect854"
         width="25.646185"
         height="25.932203"
         x="257.12924"
         y="91.525429" /></clipPath></defs><sodipodi:namedview
     pagecolor="#ffffff"
     bordercolor="#666666"
     borderopacity="1"
     objecttolerance="10"
     gridtolerance="10"
     guidetolerance="10"
     inkscape:pageopacity="0"
     inkscape:pageshadow="2"
     inkscape:window-width="2560"
     inkscape:window-height="1406"
     id="namedview28"
     showgrid="false"
     fit-margin-top="0"
     fit-margin-left="0"
     fit-margin-right="0"
     fit-margin-bottom="0"
     inkscape:zoom="2.8284271"
     inkscape:cx="-89.411497"
     inkscape:cy="-58.913946"
     inkscape:window-x="0"
     inkscape:window-y="0"
     inkscape:window-maximized="1"
     inkscape:current-layer="svg26" /><path
     style="opacity:1;fill:#6999d3;fill-opacity:1;stroke:none;stroke-width:1.79999983;stroke-miterlimit:4;stroke-dasharray:none;stroke-opacity:1"
     d="M 29.7,1.5459961 A 6.3000002,6.3000002 0 0 0 23.535352,6.554004 H 17.91211 C 16.465451,6.554004 15.3,7.719455 15.3,9.1661129 v 0.08789 H 9.267187 C 5.629835,9.2540039 2.7,12.237706 2.7,15.942481 v 53.224804 c 0,3.704775 2.929835,6.686719 6.567187,6.686719 H 50.132812 C 53.770165,75.854004 56.7,72.87206 56.7,69.167285 V 15.942481 c 0,-3.704775 -2.929835,-6.6884771 -6.567188,-6.6884771 H 44.1 v -0.08789 C 44.1,7.719456 42.934549,6.554005 41.48789,6.554005 H 35.859375 A 6.3000002,6.3000002 0 0 0 29.7,1.5459961 Z m 0,4.4226559 A 1.8769863,1.8769863 0 0 1 31.577344,7.845996 1.8769863,1.8769863 0 0 1 29.7,9.7233389 1.8769863,1.8769863 0 0 1 27.822656,7.845996 1.8769863,1.8769863 0 0 1 29.7,5.968652 Z M 9.615235,14.678613 H 15.3 v 0.06328 c 0,1.446658 1.165451,2.61211 2.61211,2.61211 h 23.57578 c 1.446659,0 2.61211,-1.165452 2.61211,-2.61211 v -0.06328 h 5.684765 c 0.955169,0 1.722657,0.783184 1.722657,1.756055 v 52.24043 c 0,0.97287 -0.767488,1.756054 -1.722657,1.756054 H 9.615235 c -0.955168,0 -1.722657,-0.783183 -1.722657,-1.756054 v -52.24043 c 0,-0.972871 0.767489,-1.756055 1.722657,-1.756055 z m 4.591405,13.032422 c -1.388906,0 -2.50664,1.03113 -2.50664,2.311524 0,1.280394 1.117734,2.311523 2.50664,2.311523 h 30.98672 c 1.388906,0 2.50664,-1.031129 2.50664,-2.311523 0,-1.280394 -1.117734,-2.311524 -2.50664,-2.311524 z m 0,10.460742 c -1.388906,0 -2.50664,1.029371 -2.50664,2.309766 0,1.280394 1.117734,2.311523 2.50664,2.311523 h 30.98672 c 1.388906,0 2.50664,-1.031129 2.50664,-2.311523 0,-1.280395 -1.117734,-2.309766 -2.50664,-2.309766 z m 0,10.458985 c -1.388906,0 -2.50664,1.029371 -2.50664,2.309765 0,1.280395 1.117734,2.311524 2.50664,2.311524 h 30.98672 c 1.388906,0 2.50664,-1.031129 2.50664,-2.311524 0,-1.280394 -1.117734,-2.309765 -2.50664,-2.309765 z m 0,10.458984 c -1.388906,0 -2.50664,1.031129 -2.50664,2.311523 0,1.280395 1.117734,2.309766 2.50664,2.309766 h 30.98672 c 1.388906,0 2.50664,-1.029371 2.50664,-2.309766 0,-1.280394 -1.117734,-2.311523 -2.50664,-2.311523 z"
     id="rect868"
     inkscape:connector-curvature="0" /></svg>