<svg xmlns="http://www.w3.org/2000/svg" xml:space="preserve" id="Layer_1" x="0" y="0" style="enable-background:new 0 0 40.8 47.9" version="1.1" viewBox="0 0 40.8 47.9"><style>.st0{fill:#4f0599}</style><path d="M18.7 37.1c-1.6 0-2.9-1.3-2.9-2.9 0-1.6 1.3-2.9 2.9-2.9h3.6c1 0 1.9-.8 1.9-1.9v-7.2c0-1.6 1.3-2.9 2.9-2.9 1.6 0 2.9 1.3 2.9 2.9v11.4c-.1 1.8-1.5 3.3-3.3 3.5h-8z" class="st0"/><path d="M18.7 37h7.9c1.7-.2 3.1-1.6 3.2-3.4V22.2c0-1.5-1.2-2.7-2.8-2.7-1.5 0-2.7 1.2-2.7 2.7v7.2c0 1.1-.9 2-2.1 2h-3.6c-1.5 0-2.7 1.2-2.8 2.7.1 1.7 1.3 2.9 2.9 2.9zm-4.8-8.4c-1.6 0-2.9-1.3-2.9-2.9V14.4c.1-1.8 1.5-3.3 3.3-3.5h8c1.6 0 2.9 1.3 2.9 2.9 0 .8-.3 1.5-.8 2.1-.5.6-1.3.9-2.1.9h-3.6c-1 0-1.9.8-1.9 1.9v7.2c0 1.4-1.3 2.7-2.9 2.7z" class="st0"/><path d="M22.3 11h-7.9c-1.7.2-3.1 1.6-3.2 3.4v11.4c0 1 .5 2 1.3 2.5.9.5 2 .5 2.8 0 .9-.5 1.4-1.5 1.3-2.5v-7.2c0-.5.2-1.1.6-1.4.4-.4.9-.6 1.5-.6h3.6c1.5 0 2.7-1.2 2.8-2.7-.1-1.7-1.3-2.9-2.8-2.9z" class="st0"/><path d="M23.5 5.8c3 0 6 1.2 8.1 3.3 2.1 2.1 3.4 5 3.3 8.1v21.9c-.3 1.5-1.5 2.7-3 2.9H17.3c-3 0-5.9-1.2-8.1-3.3-2.1-2.1-3.4-5-3.4-8.1V9.4c0-2 1.6-3.5 3.5-3.6h14.2zm.1-5.8H9.1C4.1 0 0 4.1 0 9.1v21.7c0 4.5 1.8 8.9 5 12.1 3.2 3.2 7.6 5 12.2 5h15.3c4.3-.3 7.8-3.7 8.3-8V17.1c0-4.5-1.8-8.9-5.1-12.1-3.2-3.2-7.6-5-12.1-5z" class="st0"/></svg>