<?xml version="1.0" encoding="UTF-8" standalone="no"?><svg xmlns="http://www.w3.org/2000/svg" width="100" height="100" viewBox="0 0 1024 1024" style="enable-background:new 0 0 1024 1024"><path style="fill:#1ea2f1;fill-opacity:1;stroke-width:51.2;stroke-linecap:round;stroke-linejoin:round" d="M287.693 65.771a20.515 20.515 0 00-13.76 5.48l-211.36 196.2c-8.728 8.104-8.728 21.917 0 30.02l211.36 196.22c13.106 12.162 34.416 2.88 34.42-15v-104.04h516.26a20.435 20.435 0 0020.48-20.48v-143.36a20.435 20.435 0 00-20.48-20.48h-516.26V86.251c-.003-11.38-9.28-20.58-20.66-20.48z"/><g transform="translate(244.70837,41.340048)"/><path style="fill:#1ea2f1;fill-opacity:1;stroke-width:51.2;stroke-linecap:round;stroke-linejoin:round" d="M492.493 524.798a20.515 20.515 0 00-13.76 5.48l-211.36 196.2c-8.728 8.104-8.728 21.917 0 30.02l211.36 196.22c13.106 12.162 34.416 2.88 34.42-15v-104.04h434.34a20.435 20.435 0 0020.48-20.48v-143.36a20.435 20.435 0 00-20.48-20.48h-434.34v-104.08c-.003-11.38-9.28-20.58-20.66-20.48z"/></svg>