<?xml version="1.0" encoding="UTF-8" standalone="no"?><svg xmlns="http://www.w3.org/2000/svg" width="100" height="100" viewBox="0 0 1024 1024" style="enable-background:new 0 0 1024 1024"><path style="fill:#1ea2f1;fill-opacity:1;stroke-width:51.2;stroke-linecap:round;stroke-linejoin:round" d="M736.307 65.771a20.515 20.515 0 0113.76 5.48l211.36 196.2c8.728 8.104 8.728 21.917 0 30.02l-211.36 196.22c-13.106 12.162-34.416 2.88-34.42-15v-104.04h-516.26a20.435 20.435 0 01-20.48-20.48v-143.36a20.435 20.435 0 0120.48-20.48h516.26V86.251c.003-11.38 9.28-20.58 20.66-20.48z"/><g transform="matrix(-1,0,0,1,779.2916,41.340048)"/><path style="fill:#1ea2f1;fill-opacity:1;stroke-width:51.2;stroke-linecap:round;stroke-linejoin:round" d="M531.507 524.798a20.515 20.515 0 0113.76 5.48l211.36 196.2c8.728 8.104 8.728 21.917 0 30.02l-211.36 196.22c-13.106 12.162-34.416 2.88-34.42-15v-104.04H76.507a20.435 20.435 0 01-20.48-20.48v-143.36a20.435 20.435 0 0120.48-20.48h434.34v-104.08c.003-11.38 9.28-20.58 20.66-20.48z"/></svg>