<?xml version="1.0" encoding="UTF-8" standalone="no"?><svg xmlns="http://www.w3.org/2000/svg" width="100" height="100" fill-rule="evenodd" clip-rule="evenodd" viewBox="0 0 333 333"><g transform="translate(14.497207,92.999354)"><circle r="109.89" style="opacity:1;fill:#f19175;fill-opacity:1;stroke:none;stroke-width:23.30895042;stroke-linecap:butt;stroke-linejoin:round;stroke-miterlimit:4;stroke-dasharray:none;stroke-opacity:1;paint-order:normal" cx="170.819" cy="73.499"/><path d="M170.819-69.69A143.19 143.19 0 0027.902 65.795h-37.905l54.282 83.64 54.281-83.64H61.312A109.89 109.89 0 01170.82-36.39 109.89 109.89 0 01280.709 73.5a109.89 109.89 0 01-109.89 109.89 109.89 109.89 0 01-66.848-22.842L84.434 187.54a143.19 143.19 0 0086.385 29.15A143.19 143.19 0 00314.009 73.5a143.19 143.19 0 00-143.19-143.19z" style="opacity:1;fill:#000;fill-opacity:1;stroke:none;stroke-width:6.99968481;stroke-linecap:butt;stroke-linejoin:round;stroke-miterlimit:4;stroke-dasharray:none;stroke-opacity:1;paint-order:normal"/><path d="M153.674-3.818v87.211l58.32 33.677 17.145-29.697-41.176-23.771v-67.42z" style="opacity:1;fill:#000;fill-opacity:1;stroke:none;stroke-width:23.30895042;stroke-linecap:butt;stroke-linejoin:round;stroke-miterlimit:4;stroke-dasharray:none;stroke-opacity:1;paint-order:normal"/></g></svg>