<?xml version="1.0" encoding="UTF-8" standalone="no"?><svg xmlns="http://www.w3.org/2000/svg" width="100" height="100" style="shape-rendering:geometricPrecision;text-rendering:geometricPrecision;image-rendering:optimizeQuality" fill-rule="evenodd" clip-rule="evenodd" viewBox="0 0 333 333"><path d="M57.371 43.29A14.05 14.05 0 0043.29 57.371V275.63a14.05 14.05 0 0014.081 14.081H275.63a14.05 14.05 0 0014.081-14.081V57.37a14.05 14.05 0 00-14.081-14.081zm24.642 28.162h168.974c5.85 0 10.56 4.71 10.56 10.561v168.974c0 5.85-4.71 10.56-10.56 10.56H82.013c-5.85 0-10.56-4.71-10.56-10.56V82.013c0-5.85 4.71-10.56 10.56-10.56zm17.602 28.163v133.77h133.77V99.615z" style="fill:#fff"/><rect width="26.64" height="53.28" x="128.76" y="3.33" rx="13.32" ry="13.32" style="fill:#fff"/><rect style="fill:#fff" width="26.64" height="53.28" x="177.6" y="3.33" rx="13.32" ry="13.32"/><rect style="fill:#fff" width="26.64" height="53.28" x="79.92" y="3.33" rx="13.32" ry="13.32"/><rect width="26.64" height="53.28" x="226.44" y="3.33" rx="13.32" ry="13.32" style="fill:#fff"/><rect style="fill:#fff" width="26.64" height="53.28" x="128.76" y="276.39" rx="13.32" ry="13.32"/><rect width="26.64" height="53.28" x="177.6" y="276.39" rx="13.32" ry="13.32" style="fill:#fff"/><rect width="26.64" height="53.28" x="79.92" y="276.39" rx="13.32" ry="13.32" style="fill:#fff"/><rect style="fill:#fff" width="26.64" height="53.28" x="226.44" y="276.39" rx="13.32" ry="13.32"/><rect width="53.28" height="26.64" x="3.33" y="79.92" rx="13.32" ry="13.32" style="fill:#fff"/><rect style="fill:#fff" width="53.28" height="26.64" x="3.33" y="128.76" rx="13.32" ry="13.32"/><rect width="53.28" height="26.64" x="3.33" y="177.6" rx="13.32" ry="13.32" style="fill:#fff"/><rect style="fill:#fff" width="53.28" height="26.64" x="3.33" y="226.44" rx="13.32" ry="13.32"/><rect style="fill:#fff" width="53.28" height="26.64" x="276.39" y="79.92" rx="13.32" ry="13.32"/><rect width="53.28" height="26.64" x="276.39" y="128.76" rx="13.32" ry="13.32" style="fill:#fff"/><rect style="fill:#fff" width="53.28" height="26.64" x="276.39" y="177.6" rx="13.32" ry="13.32"/><rect width="53.28" height="26.64" x="276.39" y="226.44" rx="13.32" ry="13.32" style="fill:#fff"/></svg>