<?xml version="1.0" encoding="UTF-8" standalone="no"?><svg xmlns="http://www.w3.org/2000/svg" width="64" height="64" viewBox="0 0 57.6 57.6" style="fill:#000"><path d="M45.983 39.058L35.724 28.8l10.259-10.258c2.051-2.052 2.051-4.873 0-6.925-2.052-2.051-4.873-2.051-6.925 0L28.8 21.876 18.542 11.617c-2.052-2.051-4.873-2.051-6.925 0-2.051 2.052-2.051 4.873 0 6.925L21.876 28.8 11.617 39.058c-2.051 2.052-2.051 4.873 0 6.925 2.052 2.051 5.13 1.795 6.925 0L28.8 35.724l10.258 10.259c2.052 2.051 4.873 2.051 6.925 0 1.923-2.18 2.051-4.873 0-6.925z" style="fill:#cc243d;stroke-width:.9;fill-opacity:1"/></svg>