<?xml version="1.0" encoding="UTF-8" standalone="no"?><svg xmlns="http://www.w3.org/2000/svg" id="svg10" width="100" height="100" x="0" y="0" fill="#000" fill-rule="evenodd" clip-rule="evenodd" version="1.1" viewBox="0 0 333 333" xml:space="preserve" style="shape-rendering:geometricPrecision;text-rendering:geometricPrecision;image-rendering:optimizeQuality"><style id="style894" type="text/css"></style><path style="fill:#2b96fd;fill-opacity:1;stroke-width:3.32999992" id="path2391" d="M166.533 0a10.773 10.773 0 00-6.914 2.491c-.38.316-38.83 31.557-119.204 31.557-5.77 0-10.496 4.583-10.68 10.354-.299 9.734-5.807 238.916 133.207 287.987 1.15.406 2.356.611 3.558.611s2.409-.205 3.558-.611C309.072 283.318 303.564 54.136 303.264 44.402c-.183-5.77-4.908-10.354-10.68-10.354-80.372 0-118.824-31.238-119.164-31.518A10.636 10.636 0 00166.533 0zm-.033 93.63c19.075 0 34.6 15.524 34.6 34.608 0 10.393-4.748 20.2-12.675 26.724l15.037 62.36a6.253 6.253 0 01-.553 5.918 6.299 6.299 0 01-5.242 2.83h-62.34a6.321 6.321 0 01-5.249-2.83 6.296 6.296 0 01-.553-5.918l15.063-62.36c-7.927-6.523-12.676-16.33-12.676-26.724 0-19.084 15.513-34.608 34.588-34.608z"/></svg>