<?xml version="1.0" encoding="UTF-8" standalone="no"?><svg xmlns="http://www.w3.org/2000/svg" width="90" height="90" viewBox="0 0 81 81" style="fill:#000"><g style="stroke-width:.99350047" transform="matrix(1.0076744,0,0,1.0054109,1.502741,-2.0268436)"><path d="M61.084 23.592l-4.13 4.152c4.295 2.284 8.219 5.27 11.506 8.817 1.83 2.137 4.146 5.121 2.43 7.996-3.448 6.026-9.5 10.076-15.568 13.152-8.314 4.125-18.174 5.339-27.065 2.415a51.537 51.537 0 01-2.609-.923l-4.32 4.342c8.888 3.836 18.974 5.126 28.332 2.273 9.679-2.844 19.126-8.171 25.028-16.548 2.414-3.347 3.354-7.955 1.255-11.695-3.225-6.173-8.818-10.621-14.859-13.981z" style="fill:#6999d3;fill-opacity:1;fill-rule:evenodd;stroke:none;stroke-width:3.72562671"/><path d="M38.712 17.234c-12.168.231-24.117 5.591-32.734 14.124C2.426 35.025-1.149 40.318.89 45.62c2.228 5.54 6.673 9.69 11.583 13.006L51.529 19.38c-4.144-1.333-8.46-2.125-12.817-2.146z" style="fill:#555;fill-opacity:1;fill-rule:evenodd;stroke:none;stroke-width:3.72562671"/></g><path style="color:#000;font-style:normal;font-variant:normal;font-weight:400;font-stretch:normal;font-size:medium;line-height:normal;font-family:sans-serif;font-variant-ligatures:normal;font-variant-position:normal;font-variant-caps:normal;font-variant-numeric:normal;font-variant-alternates:normal;font-feature-settings:normal;text-indent:0;text-align:start;text-decoration:none;text-decoration-line:none;text-decoration-style:solid;text-decoration-color:#000;letter-spacing:normal;word-spacing:normal;text-transform:none;writing-mode:lr-tb;direction:ltr;text-orientation:mixed;dominant-baseline:auto;baseline-shift:baseline;text-anchor:start;white-space:normal;shape-padding:0;clip-rule:nonzero;display:inline;overflow:visible;visibility:visible;opacity:1;isolation:auto;mix-blend-mode:normal;color-interpolation:sRGB;color-interpolation-filters:linearRGB;solid-color:#000;solid-opacity:1;vector-effect:none;fill:#555;fill-opacity:1;fill-rule:nonzero;stroke:none;stroke-width:6.30000019;stroke-linecap:round;stroke-linejoin:round;stroke-miterlimit:4;stroke-dasharray:none;stroke-dashoffset:0;stroke-opacity:1;color-rendering:auto;image-rendering:auto;shape-rendering:auto;text-rendering:auto;enable-background:accumulate" d="M64.415 16.138a3.15 3.15 0 00-2.162.96L13.33 66.258a3.15 3.15 0 104.465 4.444L66.718 21.54a3.15 3.15 0 00-2.303-5.403z"/><path style="color:#000;font-style:normal;font-variant:normal;font-weight:400;font-stretch:normal;font-size:medium;line-height:normal;font-family:sans-serif;font-variant-ligatures:normal;font-variant-position:normal;font-variant-caps:normal;font-variant-numeric:normal;font-variant-alternates:normal;font-feature-settings:normal;text-indent:0;text-align:start;text-decoration:none;text-decoration-line:none;text-decoration-style:solid;text-decoration-color:#000;letter-spacing:normal;word-spacing:normal;text-transform:none;writing-mode:lr-tb;direction:ltr;text-orientation:mixed;dominant-baseline:auto;baseline-shift:baseline;text-anchor:start;white-space:normal;shape-padding:0;clip-rule:nonzero;display:inline;overflow:visible;visibility:visible;opacity:1;isolation:auto;mix-blend-mode:normal;color-interpolation:sRGB;color-interpolation-filters:linearRGB;solid-color:#000;solid-opacity:1;vector-effect:none;fill:#6999d3;fill-opacity:1;fill-rule:nonzero;stroke:none;stroke-width:6;stroke-linecap:round;stroke-linejoin:round;stroke-miterlimit:4;stroke-dasharray:none;stroke-dashoffset:0;stroke-opacity:1;color-rendering:auto;image-rendering:auto;shape-rendering:auto;text-rendering:auto;enable-background:accumulate" d="M53.14 35.184L35.263 53.15a13.61 13.61 0 005.237 1.046c7.543 0 13.723-6.16 13.723-13.695 0-1.883-.386-3.68-1.083-5.316z"/></svg>