<?xml version="1.0" encoding="UTF-8" standalone="no"?><svg xmlns="http://www.w3.org/2000/svg" width="90" height="90" viewBox="0 0 81 81" style="fill:#000"><g transform="matrix(1.0076749,0,0,1.0053231,1.5029807,1.593996)" style="stroke-width:.99354362"><path d="M38.712 13.633c-12.169.232-24.118 5.591-32.734 14.124C2.426 31.425-1.15 36.72.889 42.02c2.902 7.219 9.552 12.113 16.112 15.825 9.836 5.41 21.748 7.696 32.658 4.37 9.68-2.845 19.128-8.171 25.03-16.548 2.414-3.348 3.353-7.955 1.253-11.695-3.955-7.572-11.465-12.577-19.005-16.127-5.719-2.567-11.934-4.182-18.225-4.213zm0 5.625c11.22.191 22.156 5.513 29.747 13.703 1.83 2.137 4.148 5.12 2.433 7.996-3.45 6.025-9.503 10.076-15.57 13.152-8.315 4.125-18.174 5.34-27.065 2.416-8.022-2.585-15.714-7.18-20.81-14.005-1.423-1.846-2.177-4.457-.681-6.513 4.044-6.415 10.756-10.702 17.577-13.702 4.55-1.901 9.43-3.007 14.369-3.047z" style="fill:#6999d3;fill-rule:evenodd;stroke:none;stroke-width:3.72578835;fill-opacity:1"/><circle cx="38.7" cy="38.7" r="10.938" style="opacity:1;fill:#6999d3;fill-opacity:1;stroke:#6999d3;stroke-width:5.36513567;stroke-linecap:round;stroke-linejoin:round;stroke-miterlimit:4;stroke-dasharray:none;stroke-opacity:1"/></g></svg>