<?xml version="1.0" encoding="UTF-8" standalone="no"?><svg xmlns="http://www.w3.org/2000/svg" width="86" height="86" viewBox="0 0 77.4 77.4" style="fill:#000"><path d="M52.531 63.913l-.93 3.804c-2.79 1.102-5.02 1.94-6.682 2.518-1.66.578-3.594.865-5.794.865-3.38 0-6.009-.827-7.884-2.472-1.875-1.65-2.813-3.743-2.813-6.28 0-.984.069-1.995.21-3.024.142-1.03.368-2.193.678-3.49l3.49-12.347c.31-1.183.574-2.304.785-3.364.214-1.053.317-2.02.317-2.893 0-1.577-.325-2.68-.976-3.3-.65-.62-1.89-.933-3.731-.933a9.78 9.78 0 00-2.775.425c-.949.279-1.76.55-2.441.803l.933-3.808a87.784 87.784 0 016.56-2.388c2.09-.662 4.065-.995 5.932-.995 3.357 0 5.948.811 7.766 2.434 1.817 1.623 2.728 3.728 2.728 6.323 0 .535-.06 1.48-.187 2.832-.126 1.354-.36 2.594-.7 3.724l-3.476 12.3c-.283.987-.54 2.116-.761 3.387-.23 1.263-.34 2.227-.34 2.874 0 1.634.363 2.748 1.094 3.341.735.594 2.001.888 3.8.888.846 0 1.807-.149 2.874-.444 1.068-.294 1.845-.555 2.323-.78zm.884-51.637c0 2.144-.807 3.973-2.43 5.477-1.619 1.512-3.57 2.266-5.852 2.266-2.288 0-4.244-.754-5.882-2.266-1.634-1.504-2.453-3.333-2.453-5.477 0-2.139.819-3.972 2.453-5.495C40.885 5.257 42.845 4.5 45.133 4.5c2.281 0 4.233.761 5.852 2.28 1.623 1.524 2.43 3.357 2.43 5.496zm0 0" style="fill:#6999d3;fill-opacity:1;fill-rule:nonzero;stroke:none;stroke-width:1.20000005"/></svg>