<?xml version="1.0" encoding="UTF-8" standalone="no"?>
<svg
   xmlns:dc="http://purl.org/dc/elements/1.1/"
   xmlns:cc="http://creativecommons.org/ns#"
   xmlns:rdf="http://www.w3.org/1999/02/22-rdf-syntax-ns#"
   xmlns:svg="http://www.w3.org/2000/svg"
   xmlns="http://www.w3.org/2000/svg"
   xmlns:sodipodi="http://sodipodi.sourceforge.net/DTD/sodipodi-0.dtd"
   xmlns:inkscape="http://www.inkscape.org/namespaces/inkscape"
   height="100px"
   width="100px"
   fill="#000000"
   version="1.1"
   x="0px"
   y="0px"
   viewBox="0 0 1024 1024"
   style="enable-background:new 0 0 1024 1024;"
   xml:space="preserve"
   id="svg20"
   sodipodi:docname="arrows-right.svg"
   inkscape:version="1.0.2 (1.0.2+r75+1)"><metadata
     id="metadata26"><rdf:RDF><cc:Work
         rdf:about=""><dc:format>image/svg+xml</dc:format><dc:type
           rdf:resource="http://purl.org/dc/dcmitype/StillImage" /></cc:Work></rdf:RDF></metadata><defs
     id="defs24" /><sodipodi:namedview
     pagecolor="#ffffff"
     bordercolor="#666666"
     borderopacity="1"
     objecttolerance="10"
     gridtolerance="10"
     guidetolerance="10"
     inkscape:pageopacity="0"
     inkscape:pageshadow="2"
     inkscape:window-width="2560"
     inkscape:window-height="1406"
     id="namedview22"
     showgrid="false"
     inkscape:zoom="7.93"
     inkscape:cx="50.252207"
     inkscape:cy="50"
     inkscape:window-x="0"
     inkscape:window-y="1512"
     inkscape:window-maximized="1"
     inkscape:current-layer="svg20"
     inkscape:document-rotation="0" /><path
     id="rect861"
     style="fill:#3569AA;fill-opacity:1;stroke-width:51.2;stroke-linecap:round;stroke-linejoin:round"
     d="m 736.3071,65.771408 c 5.10511,0.04465 10.01753,2.007529 13.76,5.48 l 211.36,196.200002 c 8.72763,8.10346 8.72763,21.91654 0,30.02001 l -211.36,196.21999 c -13.10571,12.16145 -34.41652,2.87904 -34.42,-15 v -104.04 H 199.38711 c -11.34594,0 -20.48,-9.13408 -20.48,-20.48 v -143.36 c 0,-11.34592 9.13406,-20.48 20.48,-20.48 H 715.6471 V 86.251404 c 0.003,-11.380466 9.27997,-20.580044 20.66,-20.479996 z"
     sodipodi:nodetypes="cccccccssssccc" /><g
     id="rect863"
     transform="matrix(-1,0,0,1,779.2916,41.340048)" /><path
     id="path889"
     style="fill:#3569AA;fill-opacity:1;stroke-width:51.2;stroke-linecap:round;stroke-linejoin:round"
     d="m 531.5071,524.79835 c 5.10511,0.0447 10.01753,2.00753 13.76,5.48 l 211.35999,196.2 c 8.72763,8.10346 8.72763,21.91654 0,30.02001 L 545.2671,952.71835 c -13.10571,12.16145 -34.41652,2.87904 -34.42,-15 v -104.04 H 76.50711 c -11.34594,0 -20.48,-9.13408 -20.48,-20.48 v -143.36 c 0,-11.34592 9.13406,-20.48 20.48,-20.48 H 510.8471 v -104.08 c 0.003,-11.38047 9.27997,-20.58004 20.66,-20.48 z"
     sodipodi:nodetypes="cccccccssssccc" /></svg>
