<svg xmlns="http://www.w3.org/2000/svg" xml:space="preserve" width="100" height="100" style="enable-background:new 0 0 1024 1024" viewBox="0 0 1024 1024"><path d="M736.307 65.771a20.515 20.515 0 0 1 13.76 5.48l211.36 196.2c8.728 8.104 8.728 21.917 0 30.02l-211.36 196.22c-13.106 12.162-34.416 2.88-34.42-15v-104.04h-516.26a20.435 20.435 0 0 1-20.48-20.48v-143.36a20.435 20.435 0 0 1 20.48-20.48h516.26V86.251c.003-11.38 9.28-20.58 20.66-20.48zM531.507 524.798a20.515 20.515 0 0 1 13.76 5.48l211.36 196.2c8.728 8.104 8.728 21.917 0 30.02l-211.36 196.22c-13.106 12.162-34.416 2.88-34.42-15v-104.04H76.507a20.435 20.435 0 0 1-20.48-20.48v-143.36a20.435 20.435 0 0 1 20.48-20.48h434.34v-104.08c.003-11.38 9.28-20.58 20.66-20.48z"/></svg>