<?xml version="1.0" encoding="UTF-8" standalone="no"?>
<svg
   xmlns:dc="http://purl.org/dc/elements/1.1/"
   xmlns:cc="http://creativecommons.org/ns#"
   xmlns:rdf="http://www.w3.org/1999/02/22-rdf-syntax-ns#"
   xmlns:svg="http://www.w3.org/2000/svg"
   xmlns="http://www.w3.org/2000/svg"
   xmlns:sodipodi="http://sodipodi.sourceforge.net/DTD/sodipodi-0.dtd"
   xmlns:inkscape="http://www.inkscape.org/namespaces/inkscape"
   height="100px"
   width="100px"
   fill="#000000"
   version="1.1"
   x="0px"
   y="0px"
   viewBox="0 0 1024 1024"
   style="enable-background:new 0 0 1024 1024;"
   xml:space="preserve"
   id="svg20"
   sodipodi:docname="arrows.svg"
   inkscape:version="1.0.2 (1.0.2+r75+1)"><metadata
     id="metadata26"><rdf:RDF><cc:Work
         rdf:about=""><dc:format>image/svg+xml</dc:format><dc:type
           rdf:resource="http://purl.org/dc/dcmitype/StillImage" /></cc:Work></rdf:RDF></metadata><defs
     id="defs24" /><sodipodi:namedview
     pagecolor="#ffffff"
     bordercolor="#666666"
     borderopacity="1"
     objecttolerance="10"
     gridtolerance="10"
     guidetolerance="10"
     inkscape:pageopacity="0"
     inkscape:pageshadow="2"
     inkscape:window-width="2560"
     inkscape:window-height="1406"
     id="namedview22"
     showgrid="false"
     inkscape:zoom="7.93"
     inkscape:cx="50.252207"
     inkscape:cy="50"
     inkscape:window-x="0"
     inkscape:window-y="0"
     inkscape:window-maximized="1"
     inkscape:current-layer="svg20" /><g
     id="g18"
     style="fill:#1ea2f1;fill-opacity:1"><g
       id="g8"
       style="fill:#1ea2f1;fill-opacity:1"><polygon
         points="738.7,496.4 738.7,376.4 75.4,376.4 75.4,227.6 738.7,227.6 738.7,107.6 948.6,302   "
         id="polygon2"
         style="fill:#1ea2f1;fill-opacity:1" /><g
         id="g6"
         style="fill:#1ea2f1;fill-opacity:1"><path
           d="M758.7,496.4c0-35,0-69.9,0-104.9c0-5,0-10.1,0-15.1c0-10.8-9.2-20-20-20c-22.1,0-44.2,0-66.3,0     c-52.7,0-105.5,0-158.2,0c-63.9,0-127.8,0-191.7,0c-55.2,0-110.5,0-165.7,0c-26.7,0-53.6-0.9-80.3,0c-0.4,0-0.8,0-1.1,0     c6.7,6.7,13.3,13.3,20,20c0-43.5,0-87.1,0-130.6c0-6.1,0-12.2,0-18.3c-6.7,6.7-13.3,13.3-20,20c22.1,0,44.2,0,66.3,0     c52.7,0,105.5,0,158.2,0c63.9,0,127.8,0,191.7,0c55.2,0,110.5,0,165.7,0c26.7,0,53.6,0.6,80.3,0c0.4,0,0.8,0,1.1,0     c10.8,0,20-9.2,20-20c0-35,0-69.9,0-104.9c0-5,0-10.1,0-15.1c-11.4,4.7-22.8,9.4-34.1,14.1c23.7,21.9,47.4,43.9,71.1,65.8     c37.7,34.9,75.4,69.8,113.1,104.8c8.6,7.9,17.1,15.9,25.7,23.8c0-9.4,0-18.9,0-28.3c-23.7,21.9-47.4,43.9-71.1,65.8     c-37.7,34.9-75.4,69.8-113.1,104.8c-8.6,7.9-17.1,15.9-25.7,23.8c-7.7,7.1-7.8,21.2,0,28.3c8.2,7.6,20.1,7.6,28.3,0     c23.7-21.9,47.4-43.9,71.1-65.8c37.7-34.9,75.4-69.8,113.1-104.8c8.6-7.9,17.1-15.9,25.7-23.8c7.7-7.1,7.7-21.1,0-28.3     c-23.7-21.9-47.4-43.9-71.1-65.8c-37.7-34.9-75.4-69.8-113.1-104.8c-8.6-7.9-17.1-15.9-25.7-23.8c-12.5-11.6-34.1-3.7-34.1,14.1     c0,35,0,69.9,0,104.9c0,5,0,10.1,0,15.1c6.7-6.7,13.3-13.3,20-20c-22.1,0-44.2,0-66.3,0c-52.7,0-105.5,0-158.2,0     c-63.9,0-127.8,0-191.7,0c-55.2,0-110.5,0-165.7,0c-26.7,0-53.6-0.6-80.3,0c-0.4,0-0.8,0-1.1,0c-10.8,0-20,9.2-20,20     c0,43.5,0,87.1,0,130.6c0,6.1,0,12.2,0,18.3c0,10.8,9.2,20,20,20c22.1,0,44.2,0,66.3,0c52.7,0,105.5,0,158.2,0     c63.9,0,127.8,0,191.7,0c55.2,0,110.5,0,165.7,0c26.7,0,53.6,0.9,80.3,0c0.4,0,0.8,0,1.1,0c-6.7-6.7-13.3-13.3-20-20     c0,35,0,69.9,0,104.9c0,5,0,10.1,0,15.1c0,10.5,9.2,20.5,20,20C749.6,515.9,758.7,507.6,758.7,496.4z"
           id="path4"
           style="fill:#1ea2f1;fill-opacity:1" /></g></g><g
       id="g16"
       style="fill:#1ea2f1;fill-opacity:1"><polygon
         points="285.3,916.4 285.3,796.4 948.6,796.4 948.6,647.6 285.3,647.6 285.3,527.6 75.4,722   "
         id="polygon10"
         style="fill:#1ea2f1;fill-opacity:1" /><g
         id="g14"
         style="fill:#1ea2f1;fill-opacity:1"><path
           d="M305.3,916.4c0-35,0-69.9,0-104.9c0-5,0-10.1,0-15.1c-6.7,6.7-13.3,13.3-20,20c22.1,0,44.2,0,66.3,0     c52.7,0,105.5,0,158.2,0c63.9,0,127.8,0,191.7,0c55.2,0,110.5,0,165.7,0c26.7,0,53.6,0.6,80.3,0c0.4,0,0.8,0,1.1,0     c10.8,0,20-9.2,20-20c0-43.5,0-87.1,0-130.6c0-6.1,0-12.2,0-18.3c0-10.8-9.2-20-20-20c-22.1,0-44.2,0-66.3,0     c-52.7,0-105.5,0-158.2,0c-63.9,0-127.8,0-191.7,0c-55.2,0-110.5,0-165.7,0c-26.7,0-53.6-0.9-80.3,0c-0.4,0-0.8,0-1.1,0     c6.7,6.7,13.3,13.3,20,20c0-35,0-69.9,0-104.9c0-5,0-10.1,0-15.1c0-17.8-21.6-25.7-34.1-14.1c-23.7,21.9-47.4,43.9-71.1,65.8     c-37.7,34.9-75.4,69.8-113.1,104.8c-8.6,7.9-17.1,15.9-25.7,23.8c-7.7,7.1-7.7,21.1,0,28.3c23.7,21.9,47.4,43.9,71.1,65.8     c37.7,34.9,75.4,69.8,113.1,104.8c8.6,7.9,17.1,15.9,25.7,23.8c7.7,7.1,20.8,8.2,28.3,0c7.1-7.7,8.2-20.7,0-28.3     c-23.7-21.9-47.4-43.9-71.1-65.8c-37.7-34.9-75.4-69.8-113.1-104.8c-8.6-7.9-17.1-15.9-25.7-23.8c0,9.4,0,18.9,0,28.3     c23.7-21.9,47.4-43.9,71.1-65.8c37.7-34.9,75.4-69.8,113.1-104.8c8.6-7.9,17.1-15.9,25.7-23.8c-11.4-4.7-22.8-9.4-34.1-14.1     c0,35,0,69.9,0,104.9c0,5,0,10.1,0,15.1c0,10.8,9.2,20,20,20c22.1,0,44.2,0,66.3,0c52.7,0,105.5,0,158.2,0     c63.9,0,127.8,0,191.7,0c55.2,0,110.5,0,165.7,0c26.7,0,53.6,0.9,80.3,0c0.4,0,0.8,0,1.1,0c-6.7-6.7-13.3-13.3-20-20     c0,43.5,0,87.1,0,130.6c0,6.1,0,12.2,0,18.3c6.7-6.7,13.3-13.3,20-20c-22.1,0-44.2,0-66.3,0c-52.7,0-105.5,0-158.2,0     c-63.9,0-127.8,0-191.7,0c-55.2,0-110.5,0-165.7,0c-26.7,0-53.6-0.6-80.3,0c-0.4,0-0.8,0-1.1,0c-10.8,0-20,9.2-20,20     c0,35,0,69.9,0,104.9c0,5,0,10.1,0,15.1c0,10.5,9.2,20.5,20,20C296.1,935.9,305.3,927.6,305.3,916.4z"
           id="path12"
           style="fill:#1ea2f1;fill-opacity:1" /></g></g></g></svg>
