<?xml version="1.0" encoding="UTF-8" standalone="no"?>
<svg
   xmlns:dc="http://purl.org/dc/elements/1.1/"
   xmlns:cc="http://creativecommons.org/ns#"
   xmlns:rdf="http://www.w3.org/1999/02/22-rdf-syntax-ns#"
   xmlns:svg="http://www.w3.org/2000/svg"
   xmlns="http://www.w3.org/2000/svg"
   xmlns:sodipodi="http://sodipodi.sourceforge.net/DTD/sodipodi-0.dtd"
   xmlns:inkscape="http://www.inkscape.org/namespaces/inkscape"
   height="100px"
   width="100px"
   fill="#012a51"
   xml:space="preserve"
   version="1.1"
   viewBox="0 0 333 333"
   x="0px"
   y="0px"
   fill-rule="evenodd"
   clip-rule="evenodd"
   id="svg10"
   sodipodi:docname="backup.svg"
   inkscape:version="0.92.2 (5c3e80d, 2017-08-06)"><metadata
     id="metadata14"><rdf:RDF><cc:Work
         rdf:about=""><dc:format>image/svg+xml</dc:format><dc:type
           rdf:resource="http://purl.org/dc/dcmitype/StillImage" /><dc:title /></cc:Work></rdf:RDF></metadata><sodipodi:namedview
     pagecolor="#ffffff"
     bordercolor="#666666"
     borderopacity="1"
     objecttolerance="10"
     gridtolerance="10"
     guidetolerance="10"
     inkscape:pageopacity="0"
     inkscape:pageshadow="2"
     inkscape:window-width="2560"
     inkscape:window-height="1406"
     id="namedview12"
     showgrid="false"
     inkscape:zoom="4.565"
     inkscape:cx="-36.519127"
     inkscape:cy="88.052331"
     inkscape:window-x="0"
     inkscape:window-y="0"
     inkscape:window-maximized="1"
     inkscape:current-layer="g1005" /><defs
     id="defs4" /><g
     id="g1005"
     transform="translate(14.497207,92.999354)"><circle
       r="109.89"
       style="opacity:1;fill:#f1f5ff;fill-opacity:1;stroke:none;stroke-width:23.30895042;stroke-linecap:butt;stroke-linejoin:round;stroke-miterlimit:4;stroke-dasharray:none;stroke-opacity:1;paint-order:normal"
       id="circle938"
       cx="170.81912"
       cy="73.499191" /><path
       id="path932"
       transform="scale(3.33)"
       d="M 51.296875,-20.927734 A 43.000001,43.000001 0 0 0 8.3789062,19.757812 H -3.0039062 L 13.296875,44.875 29.597656,19.757812 H 18.412109 a 33,33 0 0 1 32.884766,-30.685546 33,33 0 0 1 33,33 33,33 0 0 1 -33,33 33,33 0 0 1 -20.074219,-6.859375 l -5.867187,8.105468 a 43.000001,43.000001 0 0 0 25.941406,8.753907 43.000001,43.000001 0 0 0 43,-43 43.000001,43.000001 0 0 0 -43,-43 z"
       style="opacity:1;fill:#012a51;fill-opacity:1;stroke:none;stroke-width:6.99968481;stroke-linecap:butt;stroke-linejoin:round;stroke-miterlimit:4;stroke-dasharray:none;stroke-opacity:1;paint-order:normal"
       inkscape:connector-curvature="0" /><path
       sodipodi:nodetypes="ccccccc"
       inkscape:connector-curvature="0"
       id="rect997"
       d="m 153.6743,-3.817793 v 87.21088 l 58.32052,33.677223 17.1443,-29.696834 -41.17623,-23.771778 V -3.817793 Z"
       style="opacity:1;fill:#012a51;fill-opacity:1;stroke:none;stroke-width:23.30895042;stroke-linecap:butt;stroke-linejoin:round;stroke-miterlimit:4;stroke-dasharray:none;stroke-opacity:1;paint-order:normal" /></g></svg>