<?xml version="1.0" encoding="UTF-8" standalone="no"?>
<svg
   xmlns:dc="http://purl.org/dc/elements/1.1/"
   xmlns:cc="http://creativecommons.org/ns#"
   xmlns:rdf="http://www.w3.org/1999/02/22-rdf-syntax-ns#"
   xmlns:svg="http://www.w3.org/2000/svg"
   xmlns="http://www.w3.org/2000/svg"
   xmlns:sodipodi="http://sodipodi.sourceforge.net/DTD/sodipodi-0.dtd"
   xmlns:inkscape="http://www.inkscape.org/namespaces/inkscape"
   version="1.1"
   id="Layer_1"
   x="0px"
   y="0px"
   viewBox="0 0 64 64"
   style="enable-background:new 0 0 64 64; fill:#786ede"
   xml:space="preserve"
   sodipodi:docname="circle.svg"
   inkscape:version="1.0.2 (1.0.2+r75+1)"><metadata
   id="metadata13"><rdf:RDF><cc:Work
       rdf:about=""><dc:format>image/svg+xml</dc:format><dc:type
         rdf:resource="http://purl.org/dc/dcmitype/StillImage" /></cc:Work></rdf:RDF></metadata><defs
   id="defs11">
	
	
</defs><sodipodi:namedview
   pagecolor="#ffffff"
   bordercolor="#666666"
   borderopacity="1"
   objecttolerance="10"
   gridtolerance="10"
   guidetolerance="10"
   inkscape:pageopacity="0"
   inkscape:pageshadow="2"
   inkscape:window-width="2560"
   inkscape:window-height="1406"
   id="namedview9"
   showgrid="false"
   inkscape:zoom="12.390625"
   inkscape:cx="32.161412"
   inkscape:cy="32"
   inkscape:window-x="0"
   inkscape:window-y="1512"
   inkscape:window-maximized="1"
   inkscape:current-layer="Layer_1" />
<path
   d="m 53.559701,26.559702 v 0 H 37.440298 V 10.440299 c 0,-3.2238805 -2.216417,-5.4402982 -5.440299,-5.4402982 v 0 c -3.22388,0 -5.440297,2.2164177 -5.440297,5.4402982 V 26.559702 H 10.440299 c -3.2238805,0 -5.4402982,2.216417 -5.4402982,5.440297 0,3.223882 2.2164177,5.440299 5.4402982,5.440299 v 0 h 16.119403 v 16.119403 c 0,3.22388 2.216417,5.440298 5.440297,5.440298 v 0 c 3.223882,0 5.440299,-2.619403 5.440299,-5.440298 V 37.440298 h 16.119403 c 3.22388,0 5.440298,-2.216417 5.440298,-5.440299 -0.201493,-3.22388 -2.216418,-5.440297 -5.440298,-5.440297 z"
   id="path2"
   style="stroke-width:1" />
</svg>
