<svg xmlns="http://www.w3.org/2000/svg" width="101" height="116" viewBox="0 0 101 116">
  <g fill="none">
    <polygon fill="#AB2B4A" points="100.29 29.13 100.29 86.87 89.59 73.06 83.63 58 83.62 58 89.28 42.73"/>
    <polygon fill="#E87A68" points=".3 29.13 .3 86.87 9.75 73.48 16.96 58 16.96 58 9.64 43.32"/>
    <polygon fill="#D74D4E" points="83.62 58 52.11 60 16.96 58 31.63 29.13 50.29 .27 70.59 31.96"/>
    <polygon fill="#BD3246" points="100.29 29.13 83.62 58 50.29 .27"/>
    <polygon fill="#F19175" points="50.29 .27 16.96 58 .29 29.13"/>
    <polygon fill="#CF3942" points="83.62 58 72.23 82.93 50.29 115.74 27.71 81.83 16.96 58"/>
    <polygon fill="#E0625B" points="50.29 115.74 .29 86.87 16.96 58"/>
    <polygon fill="#9A244F" points="50.29 115.74 100.29 86.87 83.62 58"/>
  </g>
</svg>
