<?xml version="1.0" encoding="UTF-8" standalone="no"?>
<svg
   xmlns:dc="http://purl.org/dc/elements/1.1/"
   xmlns:cc="http://creativecommons.org/ns#"
   xmlns:rdf="http://www.w3.org/1999/02/22-rdf-syntax-ns#"
   xmlns:svg="http://www.w3.org/2000/svg"
   xmlns="http://www.w3.org/2000/svg"
   xmlns:sodipodi="http://sodipodi.sourceforge.net/DTD/sodipodi-0.dtd"
   xmlns:inkscape="http://www.inkscape.org/namespaces/inkscape"
   height="64"
   width="64"
   version="1.1"
   x="0px"
   y="0px"
   viewBox="0 0 57.6 57.6"
   style="fill:#000000"
   xml:space="preserve"
   id="svg26"
   sodipodi:docname="delete.svg"
   inkscape:version="1.0.2 (1.0.2+r75+1)"><metadata
     id="metadata32"><rdf:RDF><cc:Work
         rdf:about=""><dc:format>image/svg+xml</dc:format><dc:type
           rdf:resource="http://purl.org/dc/dcmitype/StillImage" /><dc:title /></cc:Work></rdf:RDF></metadata><defs
     id="defs30"><clipPath
       clipPathUnits="userSpaceOnUse"
       id="clipPath852"><rect
         style="opacity:0;fill:#2653af;fill-opacity:1;stroke:none;stroke-width:1.8;stroke-miterlimit:4;stroke-dasharray:none;stroke-opacity:1"
         id="rect854"
         width="25.646185"
         height="25.932203"
         x="257.12924"
         y="91.525429" /></clipPath><clipPath
       id="clipPath852-5"
       clipPathUnits="userSpaceOnUse"><rect
         y="91.525429"
         x="257.12924"
         height="25.932203"
         width="25.646185"
         id="rect854-3"
         style="opacity:0;fill:#2653af;fill-opacity:1;stroke:none;stroke-width:1.8;stroke-miterlimit:4;stroke-dasharray:none;stroke-opacity:1" /></clipPath></defs><sodipodi:namedview
     pagecolor="#ffffff"
     bordercolor="#666666"
     borderopacity="1"
     objecttolerance="10"
     gridtolerance="10"
     guidetolerance="10"
     inkscape:pageopacity="0"
     inkscape:pageshadow="2"
     inkscape:window-width="2688"
     inkscape:window-height="1478"
     id="namedview28"
     showgrid="false"
     fit-margin-top="0"
     fit-margin-left="0"
     fit-margin-right="0"
     fit-margin-bottom="0"
     inkscape:zoom="4"
     inkscape:cx="-14.810406"
     inkscape:cy="29.616077"
     inkscape:window-x="0"
     inkscape:window-y="0"
     inkscape:window-maximized="1"
     inkscape:current-layer="svg26"
     inkscape:document-rotation="0" /><path
     d="m 45.982694,39.058326 v 0 L 35.724368,28.8 45.982694,18.541675 c 2.051665,-2.051665 2.051666,-4.872704 -1e-6,-6.92437 v 0 c -2.051664,-2.0516646 -4.872703,-2.051664 -6.924368,10e-7 L 28.8,21.875631 18.541674,11.617306 c -2.051665,-2.051665 -4.872703,-2.0516656 -6.924368,-10e-7 -2.0516658,2.051666 -2.0516652,4.872705 0,6.92437 v 0 L 21.875631,28.8 11.617306,39.058326 c -2.0516649,2.051664 -2.0516656,4.872703 -10e-7,6.924367 v 0 c 2.051666,2.051667 5.129163,1.795207 6.924369,1e-6 L 28.8,35.724369 39.058325,45.982694 c 2.051665,2.051665 4.872704,2.051666 6.92437,-1e-6 1.923435,-2.179894 2.051664,-4.872703 -10e-7,-6.924367 z"
     id="path2"
     style="fill:#cc243d;stroke-width:0.9;fill-opacity:1" /></svg>
