<?xml version="1.0" encoding="UTF-8" standalone="no"?>
<svg
   height="100px"
   width="100px"
   fill="#000000"
   xml:space="preserve"
   version="1.1"
   style="shape-rendering:geometricPrecision;text-rendering:geometricPrecision;image-rendering:optimizeQuality;"
   viewBox="0 0 333 333"
   x="0px"
   y="0px"
   fill-rule="evenodd"
   clip-rule="evenodd"
   id="svg10"
   sodipodi:docname="encryption-at-rest.svg"
   inkscape:version="1.1.2 (0a00cf5339, 2022-02-04, custom)"
   xmlns:inkscape="http://www.inkscape.org/namespaces/inkscape"
   xmlns:sodipodi="http://sodipodi.sourceforge.net/DTD/sodipodi-0.dtd"
   xmlns="http://www.w3.org/2000/svg"
   xmlns:svg="http://www.w3.org/2000/svg"
   xmlns:rdf="http://www.w3.org/1999/02/22-rdf-syntax-ns#"
   xmlns:cc="http://creativecommons.org/ns#"
   xmlns:dc="http://purl.org/dc/elements/1.1/"><metadata
     id="metadata14"><rdf:RDF><cc:Work
         rdf:about=""><dc:format>image/svg+xml</dc:format><dc:type
           rdf:resource="http://purl.org/dc/dcmitype/StillImage" /><dc:title /></cc:Work></rdf:RDF></metadata><sodipodi:namedview
     pagecolor="#ffffff"
     bordercolor="#666666"
     borderopacity="1"
     objecttolerance="10"
     gridtolerance="10"
     guidetolerance="10"
     inkscape:pageopacity="0"
     inkscape:pageshadow="2"
     inkscape:window-width="1920"
     inkscape:window-height="1052"
     id="namedview12"
     showgrid="false"
     inkscape:zoom="3.02"
     inkscape:cx="53.311258"
     inkscape:cy="125"
     inkscape:window-x="0"
     inkscape:window-y="0"
     inkscape:window-maximized="1"
     inkscape:current-layer="svg10"
     inkscape:pagecheckerboard="0" /><defs
     id="defs4"><inkscape:path-effect
       effect="fill_between_many"
       method="originald"
       linkedpaths="#path2391,0,1|"
       id="path-effect1364" /></defs><style
     id="style894"
     type="text/css">
	.st0{display:none;}
	.st1{display:inline;}
</style><path
     inkscape:original-d="M 0,0"
     inkscape:path-effect="#path-effect1364"
     d="m 166.53252,0 c -2.45505,-0.00374625 -4.9173,0.82932611 -6.91365,2.4909961 -0.3796,0.31635 -38.83072,31.5569519 -119.203599,31.5569519 -5.77089,0 -10.49626,4.583329 -10.67941,10.354219 -0.2997,9.73359 -5.80769,238.915583 133.206499,287.986463 1.1488,0.40626 2.35554,0.61137 3.55764,0.61137 1.2022,0 2.40874,-0.20511 3.55764,-0.61137 139.0141,-49.07088 133.5062,-278.252873 133.2065,-287.986463 -0.1831,-5.77089 -4.90851,-10.354219 -10.67941,-10.354219 -80.3729,0 -118.82487,-31.2382085 -119.16457,-31.5179285 C 171.44051,0.84670455 168.98757,0.00374625 166.53252,0 Z"
     id="path1366"
     style="display:inline;fill:#f8fdff;fill-opacity:1" /><path
     style="fill:#012a51;fill-opacity:1;stroke-width:3.32999992"
     d="m 166.53252,0 c -2.45505,-0.00374625 -4.9173,0.82932611 -6.91365,2.4909961 -0.3796,0.31635 -38.83072,31.5569519 -119.203599,31.5569519 -5.77089,0 -10.49626,4.583329 -10.67941,10.354219 -0.2997,9.73359 -5.80769,238.915583 133.206499,287.986463 1.1488,0.40626 2.35554,0.61137 3.55764,0.61137 1.2022,0 2.40874,-0.20511 3.55764,-0.61137 139.0141,-49.07088 133.5062,-278.252873 133.2065,-287.986463 -0.1831,-5.77089 -4.90851,-10.354219 -10.67941,-10.354219 -80.3729,0 -118.82487,-31.2382085 -119.16457,-31.5179285 C 171.44051,0.84670455 168.98757,0.00374625 166.53252,0 Z M 166.5,93.630236 c 19.0753,0 34.60078,15.523754 34.60078,34.607284 0,10.39371 -4.74901,20.2011 -12.67611,26.72455 l 15.03703,62.35945 c 0.8277,1.93918 0.61557,4.15788 -0.55283,5.91856 -1.1683,1.76068 -3.13255,2.8292 -5.24215,2.8292 h -62.33994 c -2.1096,0 -4.07206,-1.06852 -5.24866,-2.8292 -1.16029,-1.75257 -1.37223,-3.97938 -0.55283,-5.91856 l 15.06305,-62.35945 c -7.9271,-6.52345 -12.67611,-16.33084 -12.67611,-26.72455 0,-19.08353 15.51247,-34.607284 34.58777,-34.607284 z"
     id="path2391"
     inkscape:connector-curvature="0" /></svg>
