<?xml version="1.0" encoding="UTF-8" standalone="no"?>
<svg
   xmlns:dc="http://purl.org/dc/elements/1.1/"
   xmlns:cc="http://creativecommons.org/ns#"
   xmlns:rdf="http://www.w3.org/1999/02/22-rdf-syntax-ns#"
   xmlns:svg="http://www.w3.org/2000/svg"
   xmlns="http://www.w3.org/2000/svg"
   xmlns:sodipodi="http://sodipodi.sourceforge.net/DTD/sodipodi-0.dtd"
   xmlns:inkscape="http://www.inkscape.org/namespaces/inkscape"
   height="90"
   width="90"
   version="1.1"
   x="0px"
   y="0px"
   viewBox="0 0 81 81"
   style="fill:#000000"
   xml:space="preserve"
   id="svg26"
   sodipodi:docname="eye-open.svg"
   inkscape:version="0.92.2 (5c3e80d, 2017-08-06)"><metadata
     id="metadata32"><rdf:RDF><cc:Work
         rdf:about=""><dc:format>image/svg+xml</dc:format><dc:type
           rdf:resource="http://purl.org/dc/dcmitype/StillImage" /><dc:title></dc:title></cc:Work></rdf:RDF></metadata><defs
     id="defs30"><clipPath
       clipPathUnits="userSpaceOnUse"
       id="clipPath852"><rect
         style="opacity:0;fill:#2653af;fill-opacity:1;stroke:none;stroke-width:1.79999995;stroke-miterlimit:4;stroke-dasharray:none;stroke-opacity:1"
         id="rect854"
         width="25.646185"
         height="25.932203"
         x="257.12924"
         y="91.525429" /></clipPath><clipPath
       id="clipPath852-5"
       clipPathUnits="userSpaceOnUse"><rect
         y="91.525429"
         x="257.12924"
         height="25.932203"
         width="25.646185"
         id="rect854-3"
         style="opacity:0;fill:#2653af;fill-opacity:1;stroke:none;stroke-width:1.79999995;stroke-miterlimit:4;stroke-dasharray:none;stroke-opacity:1" /></clipPath><clipPath
       id="clipPath852-53"
       clipPathUnits="userSpaceOnUse"><rect
         y="91.525429"
         x="257.12924"
         height="25.932203"
         width="25.646185"
         id="rect854-5"
         style="opacity:0;fill:#2653af;fill-opacity:1;stroke:none;stroke-width:1.79999995;stroke-miterlimit:4;stroke-dasharray:none;stroke-opacity:1" /></clipPath></defs><sodipodi:namedview
     pagecolor="#ffffff"
     bordercolor="#666666"
     borderopacity="1"
     objecttolerance="10"
     gridtolerance="10"
     guidetolerance="10"
     inkscape:pageopacity="0"
     inkscape:pageshadow="2"
     inkscape:window-width="2560"
     inkscape:window-height="1406"
     id="namedview28"
     showgrid="false"
     fit-margin-top="0"
     fit-margin-left="0"
     fit-margin-right="0"
     fit-margin-bottom="0"
     inkscape:zoom="4"
     inkscape:cx="-47.706695"
     inkscape:cy="15.413977"
     inkscape:window-x="0"
     inkscape:window-y="0"
     inkscape:window-maximized="1"
     inkscape:current-layer="svg26" /><g
     id="g934"
     transform="matrix(1.0076749,0,0,1.0053231,1.5029807,1.593996)"
     style="stroke-width:0.99354362"><path
       inkscape:connector-curvature="0"
       id="path862"
       d="M 38.711683,13.633432 C 26.543309,13.865192 14.594438,19.224451 5.9779324,27.75676 2.4257252,31.424551 -1.1488692,36.719545 0.88923157,42.021205 3.7905428,49.239583 10.441232,54.13353 17.001499,57.84615 c 9.835886,5.41018 21.747186,7.696192 32.657922,4.369358 9.678984,-2.844328 19.127083,-8.17092 25.028705,-16.547999 2.414771,-3.3472 3.353598,-7.954336 1.254025,-11.694428 C 71.987053,26.401285 64.47713,21.396267 56.936726,17.845967 51.218008,15.27912 45.003297,13.663806 38.711683,13.633432 Z m 0,5.625 c 11.219673,0.190566 22.155993,5.512744 29.74736,13.702838 1.829629,2.13704 4.148112,5.120618 2.432502,7.995593 -3.449,6.025496 -9.502515,10.076351 -15.570189,13.152164 C 47.007327,58.23433 37.147964,59.448111 28.256812,56.524822 20.235434,53.939532 12.543322,49.34453 7.4472294,42.519565 6.0239891,40.673791 5.2697248,38.062567 6.7658467,36.006557 10.810103,29.591624 17.522429,25.305203 24.34292,22.305117 c 4.550371,-1.901238 9.429533,-3.007456 14.368763,-3.046685 z"
       style="fill:#6999d3;fill-rule:evenodd;stroke:none;stroke-width:3.72578835;fill-opacity:1" /><circle
       r="10.938058"
       cy="38.700001"
       cx="38.700001"
       id="path876"
       style="opacity:1;fill:#6999d3;fill-opacity:1;stroke:#6999d3;stroke-width:5.36513567;stroke-linecap:round;stroke-linejoin:round;stroke-miterlimit:4;stroke-dasharray:none;stroke-opacity:1" /></g></svg>