<?xml version="1.0" encoding="UTF-8" standalone="no"?>
<svg
   xmlns:dc="http://purl.org/dc/elements/1.1/"
   xmlns:cc="http://creativecommons.org/ns#"
   xmlns:rdf="http://www.w3.org/1999/02/22-rdf-syntax-ns#"
   xmlns:svg="http://www.w3.org/2000/svg"
   xmlns="http://www.w3.org/2000/svg"
   xmlns:sodipodi="http://sodipodi.sourceforge.net/DTD/sodipodi-0.dtd"
   xmlns:inkscape="http://www.inkscape.org/namespaces/inkscape"
   height="80"
   width="80"
   version="1.1"
   x="0px"
   y="0px"
   viewBox="0 0 72 72"
   style="fill:#000000"
   xml:space="preserve"
   id="svg26"
   sodipodi:docname="file.svg"
   inkscape:version="1.0.2 (1.0.2+r75+1)"><metadata
     id="metadata32"><rdf:RDF><cc:Work
         rdf:about=""><dc:format>image/svg+xml</dc:format><dc:type
           rdf:resource="http://purl.org/dc/dcmitype/StillImage" /><dc:title /></cc:Work></rdf:RDF></metadata><defs
     id="defs30"><clipPath
       clipPathUnits="userSpaceOnUse"
       id="clipPath852"><rect
         style="opacity:0;fill:#2653af;fill-opacity:1;stroke:none;stroke-width:1.8;stroke-miterlimit:4;stroke-dasharray:none;stroke-opacity:1"
         id="rect854"
         width="25.646185"
         height="25.932203"
         x="257.12924"
         y="91.525429" /></clipPath></defs><sodipodi:namedview
     pagecolor="#ffffff"
     bordercolor="#666666"
     borderopacity="1"
     objecttolerance="10"
     gridtolerance="10"
     guidetolerance="10"
     inkscape:pageopacity="0"
     inkscape:pageshadow="2"
     inkscape:window-width="2560"
     inkscape:window-height="1406"
     id="namedview28"
     showgrid="false"
     fit-margin-top="0"
     fit-margin-left="0"
     fit-margin-right="0"
     fit-margin-bottom="0"
     inkscape:zoom="6.917449"
     inkscape:cx="65.977677"
     inkscape:cy="79.517624"
     inkscape:window-x="0"
     inkscape:window-y="1512"
     inkscape:window-maximized="1"
     inkscape:current-layer="svg26"
     inkscape:document-rotation="0" /><g
     id="g839"
     transform="translate(6.3)"><path
       id="path894"
       style="opacity:1;fill:#3569AA;fill-opacity:1;stroke:none;stroke-width:1.8;stroke-miterlimit:4;stroke-dasharray:none;stroke-opacity:1"
       d="m 16.00664,31.875804 c -1.388906,0 -2.50664,1.029371 -2.50664,2.309766 0,1.280394 1.117734,2.311523 2.50664,2.311523 h 27.38672 c 1.388906,0 2.50664,-1.031129 2.50664,-2.311523 0,-1.280395 -1.117734,-2.309766 -2.50664,-2.309766 z m 0,10.458985 c -1.388906,0 -2.50664,1.029371 -2.50664,2.309765 0,1.280395 1.117734,2.311524 2.50664,2.311524 h 20.18672 c 1.388906,0 2.50664,-1.031129 2.50664,-2.311524 0,-1.280394 -1.117734,-2.309765 -2.50664,-2.309765 z m 0,10.458984 c -1.388906,0 -2.50664,1.031129 -2.50664,2.311523 0,1.280395 1.117734,2.309766 2.50664,2.309766 h 23.78672 c 1.388906,0 2.50664,-1.029371 2.50664,-2.309766 0,-1.280394 -1.117734,-2.311523 -2.50664,-2.311523 z"
       sodipodi:nodetypes="sssssssssssssssssssss" /><rect
       style="fill:#3569AA;fill-opacity:1;stroke:none;stroke-width:4.5;stroke-linecap:round;stroke-linejoin:round;stroke-miterlimit:4;stroke-dasharray:none;stroke-opacity:1"
       id="rect924"
       width="14.4"
       height="10.799999"
       x="13.5"
       y="13.875137"
       ry="1.8"
       rx="1.8" /><path
       id="rect915"
       style="fill:none;stroke:#3569AA;stroke-width:4.5;stroke-linecap:round;stroke-linejoin:round;stroke-miterlimit:4;stroke-dasharray:none;stroke-opacity:1"
       d="m 7.724942,4.9500008 29.625062,-5e-6 L 54.45,22.049997 v 42.22506 c 0,1.537318 -1.23762,2.774942 -2.77494,2.774942 H 7.724942 C 6.187624,67.049999 4.95,65.812375 4.95,64.275057 V 7.7249427 c 0,-1.5373178 1.237624,-2.7749419 2.774942,-2.7749419 z"
       sodipodi:nodetypes="sccssssss" /><path
       style="fill:none;stroke:#3569AA;stroke-width:4.49999;stroke-linecap:round;stroke-linejoin:round;stroke-miterlimit:4;stroke-dasharray:none;stroke-opacity:1"
       d="M 37.350004,4.9499958 V 22.049997 h 17.100001"
       id="path920"
       sodipodi:nodetypes="ccc" /></g><style
     id="style894"
     type="text/css">
	.st0{display:none;}
	.st1{display:inline;}
</style></svg>
