<svg xmlns="http://www.w3.org/2000/svg" viewBox="0 0 24 24"><path d="M21.623 11.11 12.89 2.376a1.288 1.288 0 0 0-1.822 0L9.256 4.19l2.3 2.3a1.529 1.529 0 0 1 1.937 1.95l2.217 2.218a1.53 1.53 0 0 1 1.584 2.53 1.532 1.532 0 0 1-2.502-1.666l-2.067-2.068v5.44a1.548 1.548 0 0 1 .405.29 1.533 1.533 0 1 1-2.167 0 1.535 1.535 0 0 1 .501-.334V9.36a1.514 1.514 0 0 1-.501-.335 1.532 1.532 0 0 1-.33-1.676L8.364 5.081 2.377 11.07a1.288 1.288 0 0 0 0 1.822l8.733 8.732a1.288 1.288 0 0 0 1.821 0l8.692-8.692a1.289 1.289 0 0 0 0-1.822"/></svg>