<svg xmlns="http://www.w3.org/2000/svg" viewBox="0 0 24 24"><path fill="url(#a)" d="M21.349 10.815a5.962 5.962 0 0 0-.197-1.143 7.284 7.284 0 0 0-.524-1.379 7.169 7.169 0 0 0-.982-1.465 4.217 4.217 0 0 0-.524-.56c.283-1.121-.35-2.091-.35-2.091-1.092-.065-1.79.323-2.053.517a.313.313 0 0 0-.13-.043c-.175-.065-.372-.151-.568-.194-.197-.043-.394-.108-.612-.173-.196-.043-.415-.086-.633-.129-.044 0-.066-.021-.11-.021C14.187 2.624 12.833 2 12.833 2c-1.528.948-1.812 2.284-1.812 2.284s0 .022-.022.087l-.262.064a2.169 2.169 0 0 1-.35.108c-.109.043-.24.086-.349.13-.218.086-.459.215-.677.323-.218.13-.437.258-.633.388-.022-.022-.044-.022-.044-.022-2.118-.797-3.996.151-3.996.151-.153 2.241.852 3.642 1.048 3.9-.044.13-.087.28-.131.41a11.524 11.524 0 0 0-.35 1.552c0 .065-.021.15-.021.237C3.29 12.56 2.7 14.5 2.7 14.5c1.638 1.853 3.516 1.961 3.516 1.961.24.431.524.82.83 1.207.13.151.262.302.414.453-.59 1.68.088 3.06.088 3.06 1.812.065 3.013-.776 3.254-.97.174.065.37.108.546.151.545.15 1.135.216 1.703.259h.72C14.623 21.828 16.13 22 16.13 22c1.07-1.12 1.135-2.22 1.135-2.457v-.108a7.084 7.084 0 0 0 .634-.495 6.27 6.27 0 0 0 1.113-1.294c.022-.043.066-.086.088-.129 1.2.065 2.052-.733 2.052-.733-.196-1.25-.917-1.853-1.07-1.96h-.043s-.022 0-.022-.022c0-.065.022-.151.022-.216 0-.13.021-.258.021-.41v-.516c0-.044 0-.065-.021-.108l-.022-.108-.022-.108c-.022-.13-.044-.28-.087-.41a5.358 5.358 0 0 0-.612-1.508 5.498 5.498 0 0 0-1.026-1.207 4.816 4.816 0 0 0-1.289-.819c-.458-.194-.939-.345-1.419-.388a8.074 8.074 0 0 0-.72-.043h-.35c-.131 0-.24.022-.371.043a3.95 3.95 0 0 0-1.332.496 4.42 4.42 0 0 0-1.027.862 3.966 3.966 0 0 0-.655 1.078 3.74 3.74 0 0 0-.262 1.163v.56c.022.195.044.389.11.561.109.366.261.69.48.948.196.28.458.496.72.69a3.217 3.217 0 0 0 .83.388c.284.086.546.108.808.108h.35c.043 0 .065-.022.087-.022.022 0 .066-.021.087-.021.066-.022.11-.022.175-.043l.328-.13c.109-.043.196-.108.284-.172.021-.022.043-.043.065-.043a.202.202 0 0 0 .044-.28c-.066-.087-.175-.087-.263-.043-.021 0-.043.02-.065.043-.065.043-.153.064-.24.086l-.262.064c-.044 0-.087.022-.131.022h-.284s-.022 0 0 0h-.131a2.172 2.172 0 0 1-.611-.173 2.304 2.304 0 0 1-.568-.366 2.07 2.07 0 0 1-.437-.539 2.351 2.351 0 0 1-.24-.69c-.022-.129-.022-.236-.022-.366v-.194c0-.064.022-.129.022-.194a2.57 2.57 0 0 1 .786-1.444c.109-.086.218-.193.327-.258.11-.086.24-.151.372-.216.13-.064.262-.107.415-.15a1.425 1.425 0 0 1 .436-.065h.371c.022 0 0 0 0 0h.088l.48.064c.306.065.612.173.896.345a3.322 3.322 0 0 1 1.354 1.38c.152.301.262.603.305.926a.957.957 0 0 1 .022.237v.518c0 .086-.022.172-.022.258-.022.086-.022.173-.043.259l-.066.259c-.044.172-.11.344-.175.517a4.52 4.52 0 0 1-.524.948 4.45 4.45 0 0 1-1.681 1.358 4.228 4.228 0 0 1-1.048.323 4.653 4.653 0 0 1-.546.043h-.262c.022 0 0 0 0 0h-.022c-.088 0-.197 0-.284-.021a5.195 5.195 0 0 1-1.157-.194 6.735 6.735 0 0 1-1.092-.432 5.607 5.607 0 0 1-1.791-1.465 6.579 6.579 0 0 1-.633-.948 6.26 6.26 0 0 1-.415-1.056c-.11-.367-.153-.733-.197-1.1v-.581c0-.194.022-.367.044-.56.022-.195.065-.388.087-.56.044-.195.088-.368.132-.561.108-.367.24-.733.392-1.056a5.616 5.616 0 0 1 1.223-1.746c.131-.13.263-.237.393-.345.132-.108.263-.194.415-.302.131-.086.284-.172.437-.258.066-.043.153-.065.218-.108.044-.022.088-.043.11-.043.043-.022.087-.043.109-.043.153-.065.327-.13.48-.173.044-.021.088-.021.131-.043.044-.021.088-.021.131-.043.088-.021.175-.043.24-.064.044 0 .088-.022.131-.022.044 0 .088-.022.132-.022.043 0 .087-.021.13-.021h.132c.043 0 .087-.022.13-.022.044 0 .088 0 .154-.021.043 0 .108-.022.152-.022h.437s.022 0 0 0h.655c.328.022.634.043.96.108a6.464 6.464 0 0 1 1.726.56c.524.259 1.005.56 1.42.905l.065.065.065.065a.96.96 0 0 0 .153.13l.131.128.132.13c.174.172.327.366.48.56.284.367.524.754.72 1.1.022.02.022.042.044.064.022.021.022.043.044.064l.065.13.066.13a.304.304 0 0 1 .043.128c.066.173.132.324.175.475a5.2 5.2 0 0 1 .197.646c.022.065.087.13.174.108a.148.148 0 0 0 .153-.151c.11-.28.088-.517.066-.797z" style="fill:url(#a);stroke-width:.222222"/><defs><linearGradient id="a" x1="42.069" x2="42.069" y1="110.29" y2="27.956" gradientTransform="translate(2.7 2) scale(.22222)" gradientUnits="userSpaceOnUse"><stop stop-color="#FFF100"/><stop offset="1" stop-color="#F05A28"/></linearGradient></defs></svg>