<?xml version="1.0" encoding="UTF-8" standalone="no"?>
<svg
   xmlns:dc="http://purl.org/dc/elements/1.1/"
   xmlns:cc="http://creativecommons.org/ns#"
   xmlns:rdf="http://www.w3.org/1999/02/22-rdf-syntax-ns#"
   xmlns:svg="http://www.w3.org/2000/svg"
   xmlns="http://www.w3.org/2000/svg"
   xmlns:sodipodi="http://sodipodi.sourceforge.net/DTD/sodipodi-0.dtd"
   xmlns:inkscape="http://www.inkscape.org/namespaces/inkscape"
   height="100"
   width="100"
   version="1.1"
   x="0px"
   y="0px"
   viewBox="0 0 90 90"
   style="fill:#000000"
   xml:space="preserve"
   id="svg26"
   sodipodi:docname="plus.svg"
   inkscape:version="1.0.2 (1.0.2+r75+1)"><metadata
     id="metadata32"><rdf:RDF><cc:Work
         rdf:about=""><dc:format>image/svg+xml</dc:format><dc:type
           rdf:resource="http://purl.org/dc/dcmitype/StillImage" /><dc:title></dc:title></cc:Work></rdf:RDF></metadata><defs
     id="defs30"><clipPath
       clipPathUnits="userSpaceOnUse"
       id="clipPath852"><rect
         style="opacity:0;fill:#2653af;fill-opacity:1;stroke:none;stroke-width:1.8;stroke-miterlimit:4;stroke-dasharray:none;stroke-opacity:1"
         id="rect854"
         width="25.646185"
         height="25.932203"
         x="257.12924"
         y="91.525429" /></clipPath><style
       type="text/css"
       id="style9">
   
    .fil0 {fill:#000000}
   
  </style><style
       type="text/css"
       id="style2">
   
    .fil0 {fill:#000000}
   
  </style></defs><sodipodi:namedview
     pagecolor="#ffffff"
     bordercolor="#666666"
     borderopacity="1"
     objecttolerance="10"
     gridtolerance="10"
     guidetolerance="10"
     inkscape:pageopacity="0"
     inkscape:pageshadow="2"
     inkscape:window-width="2560"
     inkscape:window-height="1406"
     id="namedview28"
     showgrid="false"
     fit-margin-top="0"
     fit-margin-left="0"
     fit-margin-right="0"
     fit-margin-bottom="0"
     inkscape:zoom="3.252047"
     inkscape:cx="-64.888293"
     inkscape:cy="121.01121"
     inkscape:window-x="0"
     inkscape:window-y="1440"
     inkscape:window-maximized="1"
     inkscape:current-layer="svg26"
     inkscape:document-rotation="0" /><g
     style="clip-rule:evenodd;fill:#3569AA;fill-opacity:1;fill-rule:evenodd;image-rendering:optimizeQuality;shape-rendering:geometricPrecision;text-rendering:geometricPrecision"
     id="g26"
     transform="matrix(0.1210084,0,0,0.1210084,9.000001,9.000001)"><path
       class="fil0"
       d="m 256,0 h 83 c 19,0 34,15 34,33 v 190 h 189 c 18,0 33,15 33,33 v 83 c 0,19 -15,34 -33,34 H 373 v 189 c 0,18 -15,33 -34,33 h -83 c -18,0 -33,-15 -33,-33 V 373 H 33 C 15,373 0,358 0,339 V 256 C 0,238 15,223 33,223 H 223 V 33 C 223,15 238,0 256,0 Z"
       id="path13"
       style="fill:#3569AA;fill-opacity:1" /></g></svg>
