<svg xmlns="http://www.w3.org/2000/svg" viewBox="0 0 24 24"><path d="m16.173 19.842-.28 1.142a52.46 52.46 0 0 1-2.007.756c-.498.174-1.079.26-1.74.26-1.014 0-1.804-.248-2.367-.743-.564-.495-.845-1.123-.845-1.885 0-.296.02-.6.063-.908.043-.31.111-.659.204-1.049l1.048-3.707c.093-.355.173-.692.236-1.01.064-.316.095-.607.095-.869 0-.474-.097-.805-.294-.99-.194-.187-.567-.282-1.12-.282a2.936 2.936 0 0 0-.833.128c-.285.084-.528.165-.733.241l.28-1.143a26.362 26.362 0 0 1 1.97-.718 5.921 5.921 0 0 1 1.782-.298c1.008 0 1.785.244 2.332.731.545.487.819 1.12.819 1.898 0 .161-.018.446-.057.851a5.718 5.718 0 0 1-.209 1.118l-1.045 3.694c-.085.296-.161.636-.227 1.017a5.236 5.236 0 0 0-.103.864c0 .49.109.825.329 1.003.22.178.6.266 1.14.266.255 0 .544-.044.864-.133a4.764 4.764 0 0 0 .698-.234zm.265-15.507c0 .644-.243 1.193-.73 1.645-.486.455-1.073.68-1.757.68a2.512 2.512 0 0 1-1.766-.68c-.491-.452-.737-1-.737-1.645 0-.642.246-1.192.737-1.65A2.498 2.498 0 0 1 13.95 2c.684 0 1.27.228 1.757.685.487.458.73 1.009.73 1.65zm0 0" style="stroke-width:.909091"/></svg>