<svg width="100" height="100" viewBox="0 0 75 75" xmlns="http://www.w3.org/2000/svg"><defs><clipPath id="a"><path d="M376 331h493v493H376Z"/></clipPath><clipPath id="b"><path d="M600 65.629 65.63 599.999 600 1134.369l534.37-534.37Z"/></clipPath></defs><g clip-path="url(#a)" transform="matrix(.14778 0 0 .14786 -54.533 -47.869)" style="fill:#012a51;fill-opacity:1;stroke-width:.494863"><g clip-path="url(#b)" style="fill:#012a51;fill-opacity:1;stroke-width:.494863"><path d="M565.27 546.03c-22.441-56.641-10.688-122.91 34.734-168.32 61.453-61.453 161.38-61.988 222.83-.535 61.45 61.453 61.453 160.84 0 222.3-45.422 45.422-112.22 57.71-168.86 35.27l-53.973 53.973h-44.887v44.887h-44.887v44.887H465.34v44.887h-88.707v-88.707zm213.21-79.621c12.289-12.289 12.289-32.598 0-44.887-12.289-12.289-32.598-12.289-44.887 0-12.293 12.289-12.293 32.598 0 44.887 12.289 12.293 32.594 12.293 44.887 0z" style="fill:#012a51;fill-opacity:1;stroke-width:.494863"/></g></g></svg>