<?xml version="1.0" encoding="utf-8"?>
<!-- Svg Vector Icons : http://www.onlinewebfonts.com/icon -->
<!DOCTYPE svg PUBLIC "-//W3C//DTD SVG 1.1//EN" "http://www.w3.org/Graphics/SVG/1.1/DTD/svg11.dtd">
<svg version="1.1" xmlns="http://www.w3.org/2000/svg" xmlns:xlink="http://www.w3.org/1999/xlink" x="0px" y="0px" viewBox="0 0 1000 1000" enable-background="new 0 0 1000 1000" xml:space="preserve">
<metadata> Svg Vector Icons : http://www.onlinewebfonts.com/icon </metadata>
<g fill="#fff"><rect width="900" height="500" x="30" y="250" fill="#000"></rect><path style="box-shadow=2 2 #ccc" fill="#fff" d="M904.8,836H95.2C48.2,836,10,798.4,10,752V248c0-46.4,38.2-84,85.2-84h809.6c47.1,0,85.2,37.6,85.2,84v504C990,798.4,951.8,836,904.8,836z M248,686.7c0,20.6,19.6,37.3,43.8,37.3h416.3c24.2,0,43.8-16.7,43.8-37.3v-37.3c0-20.6-19.6-37.3-43.8-37.3H291.8c-24.2,0-43.8,16.7-43.8,37.3V686.7z M234,304c0-23.2-18.8-42-42-42h-42c-23.2,0-42,18.8-42,42v42c0,23.2,18.8,42,42,42h42c23.2,0,42-18.8,42-42V304z M220,430c-23.2,0-42,18.8-42,42v42c0,23.2,18.8,42,42,42h42c23.2,0,42-18.8,42-42v-42c0-23.2-18.8-42-42-42H220z M402,304c0-23.2-18.8-42-42-42h-42c-23.2,0-42,18.8-42,42v42c0,23.2,18.8,42,42,42h42c23.2,0,42-18.8,42-42V304z M388,430c-23.2,0-42,18.8-42,42v42c0,23.2,18.8,42,42,42h42c23.2,0,42-18.8,42-42v-42c0-23.2-18.8-42-42-42H388z M570,304c0-23.2-18.8-42-42-42h-42c-23.2,0-42,18.8-42,42v42c0,23.2,18.8,42,42,42h42c23.2,0,42-18.8,42-42V304z M556,430c-23.2,0-42,18.8-42,42v42c0,23.2,18.8,42,42,42h42c23.2,0,42-18.8,42-42v-42c0-23.2-18.8-42-42-42H556z M738,304c0-23.2-18.8-42-42-42h-42c-23.2,0-42,18.8-42,42v42c0,23.2,18.8,42,42,42h42c23.2,0,42-18.8,42-42V304z M724,430c-23.2,0-42,18.8-42,42v42c0,23.2,18.8,42,42,42h42c23.2,0,42-18.8,42-42v-42c0-23.2-18.8-42-42-42H724z M906,304c0-23.2-18.8-42-42-42h-42c-23.2,0-42,18.8-42,42v42c0,23.2,18.8,42,42,42h42c23.2,0,42-18.8,42-42V304z"/></g>
</svg>
