<svg viewBox="0 0 24 24" width="24" height="24" xmlns="http://www.w3.org/2000/svg"><path fill="none" d="M0 0h24v24H0z"/><path d="M 22 12.937 L 20 12.937 L 20 7.787 L 12.072 14.133 L 4 7.768 L 4 18.299 L 14 18.299 L 14 20.087 L 3 20.087 C 2.448 20.087 2 19.686 2 19.193 L 2 4.894 C 2 4.4 2.448 4 3 4 L 21 4 C 21.552 4 22 4.4 22 4.894 L 22 12.937 Z M 4.511 5.787 L 12.061 11.741 L 19.502 5.787 L 4.511 5.787 Z M 19.5 20.757 L 16.855 21.999 L 17.36 19.367 L 15.22 17.503 L 18.177 17.119 L 19.5 14.724 L 20.823 17.12 L 23.78 17.504 L 21.64 19.367 L 22.145 22 L 19.5 20.757 Z" fill="#000"/></svg>
