<?xml version="1.0" encoding="UTF-8" standalone="no"?>
<svg
   width="12.000002pt"
   height="12.000002pt"
   version="1.1"
   viewBox="0 0 12.000002 12.000002"
   id="svg87"
   sodipodi:docname="mail.svg"
   inkscape:version="1.1.2 (1:1.1+202205011109+08b2f3d93c)"
   xmlns:inkscape="http://www.inkscape.org/namespaces/inkscape"
   xmlns:sodipodi="http://sodipodi.sourceforge.net/DTD/sodipodi-0.dtd"
   xmlns="http://www.w3.org/2000/svg"
   xmlns:svg="http://www.w3.org/2000/svg">
  <defs
     id="defs91" />
  <sodipodi:namedview
     id="namedview89"
     pagecolor="#ffffff"
     bordercolor=" #666666"
     borderopacity="1.0"
     inkscape:pageshadow="2"
     inkscape:pageopacity="0.0"
     inkscape:pagecheckerboard="0"
     inkscape:document-units="pt"
     showgrid="false"
     inkscape:zoom="7.3628571"
     inkscape:cx="75.038805"
     inkscape:cy="32.528134"
     inkscape:window-width="1920"
     inkscape:window-height="1110"
     inkscape:window-x="1920"
     inkscape:window-y="28"
     inkscape:window-maximized="1"
     inkscape:current-layer="svg87" />
  <g
     id="g85"
     transform="matrix(0.02285732,0,0,0.02337687,-2.0000612,-0.54556963)"
     fill="#000"
  >
    <path
       d="m 560.35,472.5 h -420.7 c -28.699,0 -52.148,-23.449 -52.148,-52.148 v -280.7 c 0,-28.699 23.449,-52.148 52.148,-52.148 h 420.7 c 28.699,0 52.148,23.449 52.148,52.148 v 280.7 c 0,28.699 -23.449,52.148 -52.148,52.148 z m -420.7,-350 c -9.4492,0 -17.148,7.6992 -17.148,17.148 v 280.7 c 0,9.4492 7.6992,17.148 17.148,17.148 h 420.7 c 9.4492,0 17.148,-7.6992 17.148,-17.148 v -280.7 c 0,-9.4492 -7.6992,-17.148 -17.148,-17.148 z"
       id="path81" />
    <path
       d="m 350,305.73 c -11.375,0 -22.75,-3.6758 -32.375,-11.023 l -205.8,-158.38 c -7.6992,-5.9492 -9.1016,-16.801 -3.1484,-24.5 5.9492,-7.6992 16.801,-9.1016 24.5,-3.1484 l 205.8,158.2 c 6.4766,4.8984 15.574,4.8984 22.051,0 l 205.8,-158.2 c 7.6992,-5.9492 18.727,-4.375 24.5,3.1484 5.9492,7.6992 4.375,18.727 -3.1484,24.5 l -205.8,158.38 c -9.4492,7.3516 -21,11.023 -32.375,11.023 z"
       id="path83" />
  </g>
</svg>
