<?xml version="1.0" encoding="UTF-8" standalone="no"?>
<svg
   viewBox="0 0 20 20"
   width="20"
   height="20"
   version="1.1"
   id="svg62"
   sodipodi:docname="profile.svg"
   inkscape:version="1.2 (dc2aedaf03, 2022-05-15)"
   xmlns:inkscape="http://www.inkscape.org/namespaces/inkscape"
   xmlns:sodipodi="http://sodipodi.sourceforge.net/DTD/sodipodi-0.dtd"
   xmlns="http://www.w3.org/2000/svg"
   xmlns:svg="http://www.w3.org/2000/svg">
  <defs
     id="defs66" />
  <sodipodi:namedview
     id="namedview64"
     pagecolor="#ffffff"
     bordercolor="#666666"
     borderopacity="1.0"
     inkscape:showpageshadow="2"
     inkscape:pageopacity="0.0"
     inkscape:pagecheckerboard="0"
     inkscape:deskcolor="#d1d1d1"
     showgrid="false"
     inkscape:zoom="48.75"
     inkscape:cx="9.9794872"
     inkscape:cy="9.9897436"
     inkscape:window-width="2560"
     inkscape:window-height="1379"
     inkscape:window-x="0"
     inkscape:window-y="0"
     inkscape:window-maximized="1"
     inkscape:current-layer="svg62" />
  <path
     fill="none"
     d="M -2,-2 H 22 V 22 H -2 Z"
     id="path58" />
  <path
     d="M 10,0 C 15.52,0 20,4.48 20,10 20,15.52 15.52,20 10,20 4.48,20 0,15.52 0,10 0,4.48 4.48,0 10,0 Z M 4.023,13.416 C 5.491,15.606 7.695,17 10.16,17 c 2.464,0 4.669,-1.393 6.136,-3.584 A 8.968,8.968 0 0 0 10.16,11 8.968,8.968 0 0 0 4.023,13.416 Z M 10,9 a 3,3 0 1 0 0,-6 3,3 0 0 0 0,6 z"
     fill="rgba(89,89,89,1)"
     id="path60" />
</svg>
