<?xml version="1.0" encoding="UTF-8"?>
<svg xmlns="http://www.w3.org/2000/svg" xmlns:cc="http://creativecommons.org/ns#" xmlns:dc="http://purl.org/dc/elements/1.1/" xmlns:inkscape="http://www.inkscape.org/namespaces/inkscape" xmlns:rdf="http://www.w3.org/1999/02/22-rdf-syntax-ns#" xmlns:sodipodi="http://sodipodi.sourceforge.net/DTD/sodipodi-0.dtd" height="100px" width="100px" fill="#000000" xml:space="preserve" version="1.1" viewBox="0 0 333 333" x="0px" y="0px" fill-rule="evenodd" clip-rule="evenodd" id="svg10" sodipodi:docname="ram.svg" inkscape:version="0.92.2 (5c3e80d, 2017-08-06)">
  <metadata id="metadata14">
    <rdf:RDF>
      <cc:Work rdf:about="">
        <dc:format>image/svg+xml</dc:format>
          <dc:type rdf:resource="http://purl.org/dc/dcmitype/StillImage" />
          <dc:title />
      </cc:Work>
    </rdf:RDF>
  </metadata>
    <sodipodi:namedview pagecolor="#ffffff" bordercolor="#666666" borderopacity="1" objecttolerance="10" gridtolerance="10" guidetolerance="10" inkscape:pageopacity="0" inkscape:pageshadow="2" inkscape:window-width="2560" inkscape:window-height="1406" id="namedview12" showgrid="false" inkscape:zoom="4.72" inkscape:cx="44.252226" inkscape:cy="2.5364941" inkscape:window-x="0" inkscape:window-y="1512" inkscape:window-maximized="1" inkscape:current-layer="svg10" />
    <defs id="defs4" />
    <path style="fill:#ffffff" d="m 44.122504,203.13 c -7.533015,0 -13.597499,5.94072 -13.597499,13.32 v 73.26 c 0,7.37928 6.064484,13.32 13.597499,13.32 H 288.8775 c 7.53301,0 13.5975,-5.94072 13.5975,-13.32 v -73.26 c 0,-7.37928 -6.06449,-13.32 -13.5975,-13.32 H 275.28 v 69.74789 c 0,3.68964 -3.03225,6.66 -6.79875,6.66 H 64.518754 c -3.766508,0 -6.79875,-2.97036 -6.79875,-6.66 V 203.13 Z" id="rect886" />
    <path style="fill:#ffffff" d="m 16.927505,29.97 c -7.5330144,0 -13.5974996,5.94072 -13.5974996,13.32 v 173.16 c 0,7.37928 6.0644852,13.32 13.5974996,13.32 H 316.0725 c 7.53301,0 13.5975,-5.94072 13.5975,-13.32 V 43.29 c 0,-7.37928 -6.06449,-13.32 -13.5975,-13.32 z M 37.323754,56.61 H 295.67625 c 3.7665,0 6.79875,2.97036 6.79875,6.66 v 133.2 c 0,3.68964 -3.03225,6.66 -6.79875,6.66 H 37.323754 c -3.766507,0 -6.798749,-2.97036 -6.798749,-6.66 V 63.27 c 0,-3.68964 3.032242,-6.66 6.798749,-6.66 z" id="rect882" />
    <rect ry="13.32" rx="13.32" y="249.75" x="84.915047" height="53.279999" width="27.194998" id="rect837" style="fill:#ffffff" />
    <rect style="fill:#ffffff" id="rect985" width="27.194998" height="53.279999" x="130.24008" y="249.75" rx="13.32" ry="13.32" />
    <rect ry="13.32" rx="13.32" y="249.75" x="175.56511" height="53.279999" width="27.194998" id="rect987" style="fill:#ffffff" />
    <rect ry="13.32" rx="13.32" y="249.75" x="220.89015" height="53.279999" width="27.194998" id="rect989" style="fill:#ffffff" />
    <rect style="fill:#ffffff" id="rect1078" width="54.389996" height="93.239998" x="57.719986" y="83.249992" rx="6.6599994" ry="6.6599998" />
    <rect ry="6.6599998" rx="6.6599994" y="83.249992" x="139.30496" height="93.239998" width="54.389996" id="rect1080" style="fill:#ffffff" />
    <rect style="fill:#ffffff" id="rect1082" width="54.389996" height="93.239998" x="220.88995" y="83.249992" rx="6.6599994" ry="6.6599998" />
</svg>
