<svg xmlns="http://www.w3.org/2000/svg" viewBox="0 0 24 24"><path d="M2.832 3.6A.823.823 0 0 0 2 4.416v10.613c0 .452.371.817.832.817h.836v3.674c0 .452.37.816.832.816h15a.823.823 0 0 0 .832-.818v-3.672h.836a.823.823 0 0 0 .832-.817V4.416a.823.823 0 0 0-.832-.816H2.832zm1.25 1.632h15.836a.41.41 0 0 1 .414.409v8.164a.412.412 0 0 1-.414.408H4.082a.412.412 0 0 1-.414-.408V5.64a.41.41 0 0 1 .414-.409zM5.74 6.865a.407.407 0 0 0-.408.408v4.899c0 .226.182.406.408.406h2.518c.226 0 .408-.18.408-.406V7.273a.407.407 0 0 0-.408-.408H5.74zm5 0a.407.407 0 0 0-.408.408v4.899c0 .226.182.406.408.406h2.518c.226 0 .408-.18.408-.406V7.273a.407.407 0 0 0-.408-.408H10.74zm5 0a.407.407 0 0 0-.408.408v4.899c0 .226.182.406.408.406h2.518c.226 0 .408-.18.408-.406V7.273a.407.407 0 0 0-.408-.408H15.74zm-10.408 8.98h13.336v2.641a.412.412 0 0 1-.418.409H17v-1.01a.815.815 0 0 0-.816-.817h-.036a.815.815 0 0 0-.816.817v1.01h-1.11v-1.01a.815.815 0 0 0-.816-.817h-.035a.813.813 0 0 0-.814.817v1.01h-1.112v-1.01a.815.815 0 0 0-.816-.817h-.035a.815.815 0 0 0-.817.817v1.01H8.668v-1.01a.815.815 0 0 0-.816-.817h-.036a.815.815 0 0 0-.816.817v1.01H5.75a.412.412 0 0 1-.418-.409v-2.64z" /></svg>