<?xml version="1.0" encoding="UTF-8" standalone="no"?>
<svg
   xmlns:dc="http://purl.org/dc/elements/1.1/"
   xmlns:cc="http://creativecommons.org/ns#"
   xmlns:rdf="http://www.w3.org/1999/02/22-rdf-syntax-ns#"
   xmlns:svg="http://www.w3.org/2000/svg"
   xmlns="http://www.w3.org/2000/svg"
   xmlns:sodipodi="http://sodipodi.sourceforge.net/DTD/sodipodi-0.dtd"
   xmlns:inkscape="http://www.inkscape.org/namespaces/inkscape"
   height="100px"
   width="100px"
   fill="#000000"
   xml:space="preserve"
   version="1.1"
   style="shape-rendering:geometricPrecision;text-rendering:geometricPrecision;image-rendering:optimizeQuality;"
   viewBox="0 0 333 333"
   x="0px"
   y="0px"
   fill-rule="evenodd"
   clip-rule="evenodd"
   id="svg10"
   sodipodi:docname="storage.svg"
   inkscape:version="1.0.2 (1.0.2+r75+1)">
<metadata
   id="metadata14">
<rdf:RDF>
<cc:Work
   rdf:about="">
<dc:format>image/svg+xml</dc:format>
    <dc:type
   rdf:resource="http://purl.org/dc/dcmitype/StillImage" />
    <dc:title />
</cc:Work>
</rdf:RDF>
</metadata>
    <sodipodi:namedview
   pagecolor="#ffffff"
   bordercolor="#666666"
   borderopacity="1"
   objecttolerance="10"
   gridtolerance="10"
   guidetolerance="10"
   inkscape:pageopacity="0"
   inkscape:pageshadow="2"
   inkscape:window-width="2560"
   inkscape:window-height="1406"
   id="namedview12"
   showgrid="false"
   inkscape:zoom="6.04"
   inkscape:cx="-1.4072848"
   inkscape:cy="50"
   inkscape:window-x="0"
   inkscape:window-y="0"
   inkscape:window-maximized="1"
   inkscape:current-layer="svg10"
   inkscape:document-rotation="0" />
    <defs
   id="defs4" />
    <path
   id="ellipse824"
   d="M 320.28631,221.38368 A 163.16999,70.370287 0 0 1 166.5,268.49055 163.16999,70.370287 0 0 1 12.713689,221.39762 163.16999,71.357134 0 0 0 3.329998,244.99286 163.16999,71.357134 0 0 0 166.5,316.35 163.16999,71.357134 0 0 0 329.67,244.99286 163.16999,71.357134 0 0 0 320.28631,221.38368 Z"
   style="fill:#1ea2f1;fill-opacity:1" />
    <path
   id="ellipse822"
   d="M 12.444572,143.54587 A 163.16999,70.370287 0 0 0 3.329998,166.50001 163.16999,70.370287 0 0 0 166.5,236.86763 163.16999,70.370287 0 0 0 329.67,166.50001 163.16999,70.370287 0 0 0 320.55542,143.56678 163.16999,70.370287 0 0 1 166.5,190.98025 163.16999,70.370287 0 0 1 12.444572,143.54587 Z"
   style="fill:#1ea2f1;fill-opacity:1" />
    <path
   id="ellipse820"
   d="M 329.66999,88.007134 A 163.16999,71.357136 0 0 1 166.5,159.36427 163.16999,71.357136 0 0 1 3.330008,88.007134 163.16999,71.357136 0 0 1 166.5,16.649998 163.16999,71.357136 0 0 1 329.66999,88.007134 Z"
   style="fill:#1ea2f1;fill-opacity:1" />
</svg>
