<svg xml:space="preserve" width="32" height="32" xmlns="http://www.w3.org/2000/svg"><path d="M7.142 12.571v12.856A2.575 2.575 0 0 0 9.715 28h12a2.575 2.575 0 0 0 2.57-2.572V12.572Zm5.144 11.144a.858.858 0 0 1-1.715 0V16a.858.858 0 0 1 1.716 0zm4.285 0a.858.858 0 0 1-1.713 0V16a.858.858 0 0 1 1.713 0zm4.285 0a.858.858 0 0 1-1.714 0V16a.858.858 0 0 1 1.714 0zm4.286-16.286H20v-.857A2.575 2.575 0 0 0 17.427 4H14a2.575 2.575 0 0 0-2.571 2.572v.855H6.286A1.716 1.716 0 0 0 4.57 9.146V10c0 .474.384.858.858.858H26a.857.857 0 0 0 .857-.858v-.857a1.716 1.716 0 0 0-1.715-1.714Zm-12-.856c0-.474.386-.858.858-.858h3.428a.86.86 0 0 1 .858.858v.855h-5.144Z" style="fill:#be242d;fill-opacity:1;stroke-width:.857129"/></svg>