<?xml version="1.0" encoding="UTF-8" standalone="no"?>
<svg
   xmlns:dc="http://purl.org/dc/elements/1.1/"
   xmlns:cc="http://creativecommons.org/ns#"
   xmlns:rdf="http://www.w3.org/1999/02/22-rdf-syntax-ns#"
   xmlns:svg="http://www.w3.org/2000/svg"
   xmlns="http://www.w3.org/2000/svg"
   xmlns:sodipodi="http://sodipodi.sourceforge.net/DTD/sodipodi-0.dtd"
   xmlns:inkscape="http://www.inkscape.org/namespaces/inkscape"
   version="1.1"
   x="0px"
   y="0px"
   viewBox="-2.357 -2.951 30 30"
   enable-background="new -2.357 -2.951 1024 1024"
   xml:space="preserve"
   id="svg130"
   sodipodi:docname="phone.svg"
   inkscape:version="0.92.2 (5c3e80d, 2017-08-06)"
   width="30"
   height="30"><metadata
     id="metadata136"><rdf:RDF><cc:Work
         rdf:about=""><dc:format>image/svg+xml</dc:format><dc:type
           rdf:resource="http://purl.org/dc/dcmitype/StillImage" /><dc:title /></cc:Work></rdf:RDF></metadata><defs
     id="defs134" /><sodipodi:namedview
     pagecolor="#ffffff"
     bordercolor="#666666"
     borderopacity="1"
     objecttolerance="10"
     gridtolerance="10"
     guidetolerance="10"
     inkscape:pageopacity="0"
     inkscape:pageshadow="2"
     inkscape:window-width="2688"
     inkscape:window-height="1478"
     id="namedview132"
     showgrid="false"
     inkscape:zoom="4.95"
     inkscape:cx="-12.276905"
     inkscape:cy="-40.666056"
     inkscape:window-x="0"
     inkscape:window-y="0"
     inkscape:window-maximized="1"
     inkscape:current-layer="svg130" /><path
     d="m 6.7560489,9.128687 c 0,0 2.9225858,5.753883 8.7678211,8.767822 0,0 0.647016,0.190042 1.377563,-0.540506 l 1.141466,-1.095837 c 0,0 0.77621,-1.187098 2.648224,-0.228275 l 5.296418,3.104805 c 0,0 1.872019,0.776179 0,2.602533 l -3.470062,3.515725 c 0,0 -0.776181,1.461065 -4.65719,0.593564 0,0 -13.2048711,-3.476791 -18.9587522,-18.6378114 0,0 -1.2786298,-2.7399425 0.54799531,-4.9318899 L 3.2854332,-1.5875556 c 0,0 1.5620697,-1.2833828 2.3382798,0.5429713 l 2.8308341,5.387741 c 0,0 1.0501756,1.2327895 -0.2739654,2.602563 L 6.9934526,8.041526 c 2.92e-5,0 -0.6294554,0.395638 -0.2374037,1.087161 z"
     id="path8"
     style="fill:#1ea2f1;fill-opacity:1;stroke:none;stroke-width:1.21763027;stroke-miterlimit:10"
     inkscape:connector-curvature="0" /></svg>