<?xml version="1.0" encoding="UTF-8" standalone="no"?>
<svg
   xmlns:dc="http://purl.org/dc/elements/1.1/"
   xmlns:cc="http://creativecommons.org/ns#"
   xmlns:rdf="http://www.w3.org/1999/02/22-rdf-syntax-ns#"
   xmlns:svg="http://www.w3.org/2000/svg"
   xmlns="http://www.w3.org/2000/svg"
   xmlns:sodipodi="http://sodipodi.sourceforge.net/DTD/sodipodi-0.dtd"
   xmlns:inkscape="http://www.inkscape.org/namespaces/inkscape"
   height="86"
   width="86"
   version="1.1"
   x="0px"
   y="0px"
   viewBox="0 0 77.4 77.4"
   style="fill:#000000"
   xml:space="preserve"
   id="svg26"
   sodipodi:docname="info.svg"
   inkscape:version="0.92.2 (5c3e80d, 2017-08-06)"><metadata
     id="metadata32"><rdf:RDF><cc:Work
         rdf:about=""><dc:format>image/svg+xml</dc:format><dc:type
           rdf:resource="http://purl.org/dc/dcmitype/StillImage" /><dc:title /></cc:Work></rdf:RDF></metadata><defs
     id="defs30"><clipPath
       clipPathUnits="userSpaceOnUse"
       id="clipPath852"><rect
         style="opacity:0;fill:#2653af;fill-opacity:1;stroke:none;stroke-width:1.79999995;stroke-miterlimit:4;stroke-dasharray:none;stroke-opacity:1"
         id="rect854"
         width="25.646185"
         height="25.932203"
         x="257.12924"
         y="91.525429" /></clipPath></defs><sodipodi:namedview
     pagecolor="#ffffff"
     bordercolor="#666666"
     borderopacity="1"
     objecttolerance="10"
     gridtolerance="10"
     guidetolerance="10"
     inkscape:pageopacity="0"
     inkscape:pageshadow="2"
     inkscape:window-width="2560"
     inkscape:window-height="1406"
     id="namedview28"
     showgrid="false"
     fit-margin-top="0"
     fit-margin-left="0"
     fit-margin-right="0"
     fit-margin-bottom="0"
     inkscape:zoom="5.6568542"
     inkscape:cx="-16.669022"
     inkscape:cy="-9.1803681"
     inkscape:window-x="0"
     inkscape:window-y="0"
     inkscape:window-maximized="1"
     inkscape:current-layer="svg26" /><path
     id="path814"
     d="M 51.630929,63.912581 50.70092,67.716786 C 47.910921,68.81901 45.679679,69.657157 44.018699,70.235065 42.3577,70.812964 40.424993,71.1 38.224368,71.1 c -3.379383,0 -6.008645,-0.826668 -7.883967,-2.472352 -1.875303,-1.649507 -2.812959,-3.742964 -2.812959,-6.280371 0,-0.983584 0.06887,-1.993955 0.210495,-3.023465 0.141606,-1.029501 0.367404,-2.192959 0.677404,-3.490373 L 31.905713,43.48701 c 0.31001,-1.182597 0.574081,-2.303958 0.784576,-3.364085 0.214323,-1.052467 0.317656,-2.020743 0.317656,-2.893327 0,-1.576801 -0.325313,-2.679024 -0.975929,-3.29902 -0.650626,-0.619997 -1.890625,-0.933828 -3.731483,-0.933828 -0.903212,0 -1.829394,0.145428 -2.774697,0.424813 -0.949141,0.279384 -1.760494,0.551112 -2.441736,0.803708 l 0.933828,-3.808035 c 2.284817,-0.929998 4.47013,-1.726049 6.559766,-2.38815 2.089625,-0.662093 4.064443,-0.995055 5.932099,-0.995055 3.356423,0 5.947422,0.811351 7.765321,2.434068 1.817898,1.622718 2.728766,3.727663 2.728766,6.322485 0,0.535794 -0.06127,1.481111 -0.187525,2.832093 -0.126303,1.354821 -0.359757,2.594822 -0.700373,3.723833 l -3.47507,12.300512 c -0.283212,0.987404 -0.539626,2.116423 -0.761596,3.387034 -0.229636,1.262968 -0.340626,2.227413 -0.340626,2.874207 0,1.634197 0.363586,2.747899 1.094566,3.341108 0.734818,0.593217 2.001615,0.887902 3.800382,0.887902 0.845798,0 1.806414,-0.149256 2.874191,-0.443942 1.067788,-0.294694 1.844697,-0.554942 2.3231,-0.78075 z M 52.515,12.276484 c 0,2.143213 -0.807525,3.972593 -2.430242,5.47667 -1.618898,1.511728 -3.570746,2.265681 -5.851745,2.265681 -2.288646,0 -4.244322,-0.753953 -5.882352,-2.265681 -1.634192,-1.504077 -2.453211,-3.333457 -2.453211,-5.47667 0,-2.139391 0.819019,-3.9726001 2.453211,-5.4958158 1.634201,-1.5232074 3.593706,-2.280982 5.882352,-2.280982 2.280999,0 4.232847,0.7616038 5.851745,2.280982 C 51.707475,8.3038839 52.515,10.137093 52.515,12.276484 Z m 0,0"
     style="fill:#6999d3;fill-opacity:1;fill-rule:nonzero;stroke:none;stroke-width:1.20000005"
     inkscape:connector-curvature="0" /><path
     id="path830"
     style="fill:#6999d3;fill-opacity:1;stroke-width:0"
     d="m -136.53295,27.416703 v 0.555913 c -0.0556,0.0075 -0.11138,0.01387 -0.167,0.022 l -9.61304,33.339112 c -0.54064,1.93995 -0.81079,3.212412 -0.81079,3.81665 0,0.349762 0.14225,0.681712 0.42847,0.99975 0.28622,0.2862 0.58945,0.430662 0.90747,0.430662 0.54064,0 1.5123,0.05875 3.2959,-0.791012 1.65483,-1.0026 5.27381,-3.232275 7.27734,-6.317138 l 3.8606,2.25 c -4.80211,8.364038 -13.71865,11.25 -19.125,11.25 -2.06714,0 -5.94698,-0.57335 -7.18725,-1.718262 -1.20849,-1.176638 -1.81275,-2.6554 -1.81275,-4.436275 0,-1.176638 0.27015,-2.669713 0.81079,-4.482425 l 6.63135,-22.803225 c 0.63603,-2.194425 0.95361,-2.7233 0.95361,-3.836425 0,-0.699638 -0.30104,-1.320437 -0.90528,-1.861087 -0.60423,-0.540638 -1.43123,-0.810788 -2.48071,-0.810788 -0.47702,0 -1.05041,-0.0205 -1.71826,0.01125 l 0.646,-2.812538 c 6.29029,-0.856824 12.55979,-1.320274 18.84155,-2.228024 z m -2.95753,-21.9440872 c 1.97173,0 3.62354,0.68475 4.95923,2.05225 1.3675,1.3674875 2.05225,3.0192872 2.05225,4.9592252 0,1.939924 -0.68475,3.593937 -2.05225,4.961424 -1.36749,1.3675 -3.0193,2.05225 -4.95923,2.05225 -1.90812,0 -3.54778,-0.68475 -4.91528,-2.05225 -1.36749,-1.367487 -2.05005,-3.0215 -2.05005,-4.961424 0,-1.939938 0.66822,-3.5917377 2.00391,-4.9592252 1.36749,-1.3675 3.0215,-2.05225 4.96142,-2.05225 z"
     inkscape:connector-curvature="0" /><path
     id="circle848"
     style="clip-rule:evenodd;fill:#6999d3;fill-opacity:1;fill-rule:evenodd;stroke-width:0.89999998"
     d="m -53.641502,13.540467 a 8.0678395,8.0678395 0 0 1 -8.06784,8.06784 8.0678395,8.0678395 0 0 1 -8.06784,-8.06784 8.0678395,8.0678395 0 0 1 8.06784,-8.0678383 8.0678395,8.0678395 0 0 1 8.06784,8.0678383 z m 1.28777,52.186331 c -1.34552,-0.513006 -2.43378,-2.318276 -2.43378,-4.030544 V 28.263883 c 0,-1.715269 -1.38977,-3.102034 -3.10428,-3.102034 h -11.26588 c -1.71302,0 -3.10128,1.386765 -3.10128,3.102034 v 0.109502 c 0,1.713019 1.32376,3.518289 2.95728,4.032044 1.63202,0.513756 2.95578,2.319026 2.95578,4.034295 v 25.25578 c 0,1.712268 -1.32451,3.517538 -2.95578,4.030544 -1.63427,0.513756 -2.95728,2.319776 -2.95728,4.035045 v 0.110251 c 0,1.711519 1.38826,3.101284 3.10128,3.101284 h 16.13718 c 1.71077,0 3.10128,-1.389765 3.10128,-3.101284 v -0.110251 c 0,-1.714519 -1.09051,-3.52129 -2.43452,-4.034295 z"
     inkscape:connector-curvature="0" /><path
     id="path865"
     style="fill:#6999d3;fill-opacity:1;stroke-width:0.89999998"
     d="m 131.12966,72.97263 h -25.69158 v -4.263711 h 2.83482 c 1.52837,0 2.58883,-0.356402 3.20325,-1.048435 0.63627,-0.692033 0.95988,-1.919763 0.95988,-3.661325 V 39.221535 c 0,-1.56336 -0.45699,-2.768131 -1.37314,-3.616501 -0.88116,-0.848369 -2.13185,-1.272553 -3.71598,-1.272553 h -1.90883 v -4.152198 l 19.01724,-0.870234 v 36.338838 c 0,0.981747 0.30174,1.741562 0.91615,2.277259 0.63627,0.513831 1.59616,0.780587 2.87964,0.780587 h 2.87965 V 72.97263 Z M 111.87737,7.6821048 c 1.47262,-1.4737132 3.23605,-2.2094766 5.31215,-2.2094766 2.0422,0 3.78267,0.7368566 5.24436,2.2094766 1.46278,1.4288896 2.19964,3.1682652 2.19964,5.2454562 0,2.075006 -0.73686,3.839526 -2.19964,5.312146 -1.46169,1.42889 -3.20325,2.142788 -5.24436,2.142788 -2.0761,0 -3.83953,-0.736857 -5.31215,-2.187612 -1.46169,-1.473713 -2.18761,-3.214181 -2.18761,-5.267322 0,-2.077191 0.72592,-3.8165666 2.18761,-5.2454562 z"
     inkscape:connector-curvature="0" /><path
     style="fill:#6999d3;fill-opacity:1;stroke-width:0.89999998"
     inkscape:connector-curvature="0"
     d="m 202.64034,38.094156 c 0,2.838785 -0.78855,7.254673 -2.20794,13.247664 -1.4194,5.99299 -2.20795,9.778037 -2.20795,11.51285 0,1.734813 0.31542,2.681075 0.94626,2.681075 0.63084,0 1.89253,-0.315421 3.62734,-0.946262 l 0.78855,-0.31542 1.5771,4.731308 c -2.05023,1.734814 -4.57359,3.154206 -7.57009,4.415888 -2.9965,1.261682 -5.67757,1.892523 -8.20093,1.892523 -2.36566,0 -4.41589,-0.788551 -5.83528,-2.207943 -1.4194,-1.419393 -2.05024,-3.627337 -2.05024,-6.466122 0,-2.838785 0.78855,-7.096963 2.20795,-12.774533 1.41939,-5.677571 2.20794,-9.304907 2.20794,-10.882009 0,-2.365654 -0.78855,-4.573599 -2.36565,-6.781543 l -0.78856,-1.103971 0.31542,-1.577104 c 3.15421,-0.946261 9.1472,-1.577103 17.97898,-1.577103 1.10397,1.261683 1.5771,3.311916 1.5771,6.150702 z m -6.62383,-13.563084 c -2.68108,0 -4.88902,-0.788551 -6.30841,-2.365655 -1.57711,-1.577103 -2.20795,-3.469626 -2.20795,-5.83528 0,-2.365654 0.94626,-4.415888 2.83879,-5.99299 1.89252,-1.5771032 4.10046,-2.5233649 6.78154,-2.5233649 2.68107,0 4.73131,0.6308411 6.30841,2.0502337 1.41939,1.4193922 2.20794,3.3119152 2.20794,5.6775702 0,2.365654 -0.94626,4.573598 -2.68107,6.308411 -2.05023,1.892524 -4.25818,2.681075 -6.93925,2.681075 z"
     id="path880" /></svg>